<svg xmlns="http://www.w3.org/2000/svg" width="120" height="46">
    <defs>
        <style>
            .cls-6{fill:#fff}
        </style>
    </defs>
    <g id="logo_kginicis" transform="translate(-926.188 -589.074)">
        <path id="사각형_9772" data-name="사각형 9772" transform="translate(926.188 589.074)" style="fill:none" d="M0 0h120v46H0z"/>
        <g id="그룹_5830" data-name="그룹 5830" transform="translate(942.188 589.074)">
            <path id="패스_3569" data-name="패스 3569" d="M1433.634 871.361h-14.79a.656.656 0 0 1-.656-.656 1.355 1.355 0 0 0 .656 1.033l14.79 8.543c.362.208.657.083.657-.279v-8.694a.894.894 0 0 0-.069-.321.649.649 0 0 1-.588.374" transform="translate(-1394.97 -852.335)" style="fill:#e1006e"/>
            <path id="패스_3570" data-name="패스 3570" d="m1433.634 815.373-6.779-3.918-8.011 4.625c-.364.208-.656.083-.656-.277a.655.655 0 0 0 .656.654h14.79a.648.648 0 0 0 .588-.373 1.429 1.429 0 0 0-.588-.711" transform="translate(-1394.97 -797.432)" style="fill:#6a1b7f"/>
            <path id="패스_3571" data-name="패스 3571" d="M1434.283 620.735c0-.364-.295-.488-.655-.277l-14.792 8.536a1.361 1.361 0 0 0-.657 1.037.655.655 0 0 1 .657-.656h14.79a.646.646 0 0 1 .588.374.885.885 0 0 0 .069-.321z" transform="translate(-1394.963 -620.355)" style="fill:#ffa81d"/>
            <path id="패스_3572" data-name="패스 3572" d="M1433.634 743.271h-14.79a.655.655 0 0 0-.656.656c0-.362.292-.486.656-.277l8.011 4.625 6.781-3.918a1.435 1.435 0 0 0 .586-.712.65.65 0 0 0-.588-.373" transform="translate(-1394.97 -734.251)" style="fill:#f46e0f"/>
            <path id="패스_3573" data-name="패스 3573" class="cls-6" d="m1418.836 756.395 8.011-4.625-8.011-4.625c-.363-.208-.656-.085-.656.277v8.7c0 .36.293.485.656.277" transform="translate(-1394.963 -737.747)"/>
            <path id="패스_3574" data-name="패스 3574" class="cls-6" d="M1101.789 1002.3h3.863v7.277l6.808-7.277h5.051l-7.8 8.144 8.469 9.382h-5.4l-7.13-8.318v8.318h-3.863z" transform="translate(-1101.789 -974.27)"/>
            <path id="패스_3575" data-name="패스 3575" class="cls-6" d="M1329.793 1012.96a15.742 15.742 0 0 1-7.354 1.684c-5.471 0-9.458-3.593-9.458-9.21s3.987-9.208 9.458-9.208c2.773 0 5.225.619 6.983 2.251l-2.725 2.973a5.377 5.377 0 0 0-4.258-1.662 5.649 5.649 0 0 0 0 11.291 7.573 7.573 0 0 0 3.64-.866v-2.846h-3.142v-3.567h6.857z" transform="translate(-1297.484 -968.644)"/>
            <path id="패스_3599" data-name="패스 3599" class="cls-6" d="M1.368-12.726h2.6v14.6h-2.6zm5.57 4.7h2.351v1.588h.041a3.473 3.473 0 0 1 1.07-1.285 3.173 3.173 0 0 1 1.96-.547 3.878 3.878 0 0 1 1.681.33 3.178 3.178 0 0 1 1.124.866 3.28 3.28 0 0 1 .619 1.238 5.7 5.7 0 0 1 .186 1.465v6.25H13.5v-5.013q0-.413-.041-.918a3.3 3.3 0 0 0-.22-.948 1.777 1.777 0 0 0-.547-.743 1.567 1.567 0 0 0-1.011-.3 2.364 2.364 0 0 0-1.042.206 2 2 0 0 0-.7.557 2.215 2.215 0 0 0-.4.8 3.591 3.591 0 0 0-.124.949v5.4H6.938zm11.882 0h2.475v9.9h-2.476zm-.351-3.362a1.426 1.426 0 0 1 .444-1.042 1.523 1.523 0 0 1 1.124-.444 1.637 1.637 0 0 1 1.145.423 1.376 1.376 0 0 1 .464 1.062 1.376 1.376 0 0 1-.464 1.062 1.637 1.637 0 0 1-1.145.423 1.523 1.523 0 0 1-1.124-.444 1.426 1.426 0 0 1-.444-1.037zm12.438 6.336A3.95 3.95 0 0 0 30-5.774a1.949 1.949 0 0 0-.97-.268 2.872 2.872 0 0 0-1.217.248 2.877 2.877 0 0 0-.918.66 2.8 2.8 0 0 0-.578.949 3.221 3.221 0 0 0-.2 1.114 3.221 3.221 0 0 0 .2 1.114 2.8 2.8 0 0 0 .578.949 2.877 2.877 0 0 0 .918.66A2.872 2.872 0 0 0 29.03-.1a2.45 2.45 0 0 0 1.07-.238 2.334 2.334 0 0 0 .846-.691L32.6.745a3.81 3.81 0 0 1-.856.639 5.837 5.837 0 0 1-.98.433 5.979 5.979 0 0 1-.949.237 5.091 5.091 0 0 1-.784.072 5.943 5.943 0 0 1-2.1-.371A5.047 5.047 0 0 1 25.214.7a4.992 4.992 0 0 1-1.145-1.64 5.237 5.237 0 0 1-.423-2.135 5.237 5.237 0 0 1 .423-2.135 4.992 4.992 0 0 1 1.145-1.64 5.047 5.047 0 0 1 1.712-1.05 5.943 5.943 0 0 1 2.1-.371 5.387 5.387 0 0 1 1.908.361 4.342 4.342 0 0 1 1.686 1.146zm3.218-2.97H36.6v9.9h-2.475zm-.351-3.362a1.426 1.426 0 0 1 .444-1.042 1.523 1.523 0 0 1 1.124-.444 1.637 1.637 0 0 1 1.145.423 1.376 1.376 0 0 1 .464 1.062 1.376 1.376 0 0 1-.464 1.062 1.637 1.637 0 0 1-1.145.423 1.523 1.523 0 0 1-1.124-.444 1.426 1.426 0 0 1-.443-1.041zm10.954 6.105a2.265 2.265 0 0 0-1.939-1.011 2.074 2.074 0 0 0-.97.248.841.841 0 0 0-.474.8.694.694 0 0 0 .392.66 4.323 4.323 0 0 0 .99.351q.6.144 1.289.3a5.071 5.071 0 0 1 1.289.474 2.821 2.821 0 0 1 .99.877 2.613 2.613 0 0 1 .392 1.526 2.762 2.762 0 0 1-.382 1.5 3 3 0 0 1-.99.98 4.394 4.394 0 0 1-1.372.536 7.2 7.2 0 0 1-1.526.165 6.557 6.557 0 0 1-2.125-.33A4.035 4.035 0 0 1 38.561.6l1.65-1.547a4.649 4.649 0 0 0 1.021.877 2.469 2.469 0 0 0 1.331.34 2.657 2.657 0 0 0 .557-.062A1.809 1.809 0 0 0 43.656 0a1.276 1.276 0 0 0 .4-.361.847.847 0 0 0 .155-.505.839.839 0 0 0-.392-.763 3.492 3.492 0 0 0-.99-.4q-.6-.155-1.289-.289a5 5 0 0 1-1.289-.433 2.709 2.709 0 0 1-.99-.835 2.475 2.475 0 0 1-.392-1.485 2.89 2.89 0 0 1 .34-1.434 2.991 2.991 0 0 1 .9-1 3.877 3.877 0 0 1 1.279-.578 5.858 5.858 0 0 1 1.465-.186 5.879 5.879 0 0 1 1.96.34 3.2 3.2 0 0 1 1.568 1.165z" transform="translate(41.456 43.811)"/>
        </g>
    </g>
</svg>
