<svg xmlns="http://www.w3.org/2000/svg" width="120" height="46">
    <defs>
        <style>
            .cls-2{fill:#fff}
        </style>
    </defs>
    <g id="logo_skpay" transform="translate(-900 -455)">
        <path id="사각형_9768" data-name="사각형 9768" transform="translate(900 455)" style="fill:none" d="M0 0h120v46H0z"/>
        <g id="그룹_5860" data-name="그룹 5860" transform="translate(738.498 117.242)">
            <path id="패스_3594" data-name="패스 3594" class="cls-2" d="m329.557 355.586-9.467 20.583a1.727 1.727 0 0 1-1.569 1.005h-2.562l3.651-7.989-6.827-13.6h3.938l4.717 10.017 4.476-10.017z" transform="translate(-63.618 -3.655)"/>
            <path id="패스_3595" data-name="패스 3595" class="cls-2" d="m238.923 366.22 1.708 2.364a7.392 7.392 0 0 1 3.293-.9v9.285h1.9a1.516 1.516 0 0 0 1.517-1.517v-6.414a8.714 8.714 0 0 0 5.01 1.688 7.351 7.351 0 0 0 7.378-7.635 7.6 7.6 0 0 0-7.357-7.942 6.788 6.788 0 0 0-5.086 1.733v-1.5h-3.358v8.043a7.211 7.211 0 0 1 3.215.534c-.137-3.84 1.646-5.68 4.673-5.68a4.5 4.5 0 0 1 4.612 4.677v.021a4.26 4.26 0 0 1-4.51 4.575 7.4 7.4 0 0 1-3.59-1.545s-3.641-2.98-9.4.214" transform="translate(-29.139 -3.45)"/>
            <path id="패스_3596" data-name="패스 3596" class="cls-2" d="M292.992 355.381v1.5a6.789 6.789 0 0 0-5.085-1.733 7.605 7.605 0 0 0-7.357 7.942 7.351 7.351 0 0 0 7.378 7.635 8.713 8.713 0 0 0 5.01-1.688v1.455h3.413v-15.111zm-4.542 12.177a4.643 4.643 0 1 1 4.642-4.642 4.643 4.643 0 0 1-4.642 4.642" transform="translate(-48.57 -3.45)"/>
            <path id="패스_3597" data-name="패스 3597" class="cls-2" d="M184.926 355.52c-1.593-.746-2.9-1.349-2.9-2.564 0-.93.746-1.607 2.211-1.607a7.5 7.5 0 0 1 1.445.148 4.287 4.287 0 0 0 .7.077c1.283 0 2.009-.765 2.493-2.221l.2-.591a13.416 13.416 0 0 0-5.039-1.006c-4.348 0-6.645 2.79-6.645 5.685a4.872 4.872 0 0 0 1.174 3.35 10.433 10.433 0 0 0 3.466 2.373c1.794.882 3.41 1.53 3.41 2.835 0 1.159-1.2 1.816-2.794 1.816a8.724 8.724 0 0 1-4.347-1.4l-1.8 3.369a12.434 12.434 0 0 0 6.446 1.649c4.06 0 7.134-2.331 7.134-5.91s-2.85-4.886-5.156-6"/>
            <path id="패스_3598" data-name="패스 3598" class="cls-2" d="M222.3 348.5h-5.251l-5.871 7.788h-.091V348.5h-4.323v19.125h.254c1.872 0 4.1-.864 4.1-3.99v-4.389h.091l5.987 8.143h5.5l-7.762-9.862z" transform="translate(-14.128 -.347)"/>
        </g>
    </g>
</svg>
