<svg xmlns="http://www.w3.org/2000/svg" width="48" height="48">
    <defs>
        <linearGradient id="linear-gradient" x1=".052" y1=".875" x2="1" y2=".069" gradientUnits="objectBoundingBox">
            <stop offset="0" stop-color="#0099f8"/>
            <stop offset="1" stop-color="#05c3a7"/>
        </linearGradient>
        <linearGradient id="linear-gradient-2" x1=".052" y1=".875" x2="1" y2=".069" gradientUnits="objectBoundingBox">
            <stop offset="0" stop-color="#0b75b7"/>
            <stop offset="1" stop-color="#0a8d79"/>
        </linearGradient>
        <style>
            .cls-4{fill:#dff7f4}
        </style>
    </defs>
    <g id="img_subscrition" transform="translate(-696 -922)">
        <path id="합치기_2" data-name="합치기 2" d="M34 44H6a6 6 0 0 1-6-6V4a4 4 0 0 1 4-4h27a4 4 0 0 1 4 4v19h3.5v21z" transform="translate(699 924)" style="fill:url(#linear-gradient)"/>
        <path id="사각형_9540" data-name="사각형 9540" d="M0 0h3.5A3.5 3.5 0 0 1 7 3.5v14A3.5 3.5 0 0 1 3.5 21 3.5 3.5 0 0 1 0 17.5V0z" transform="translate(734 947)" style="fill:url(#linear-gradient-2)"/>
        <rect id="사각형_7479" data-name="사각형 7479" class="cls-4" width="23" height="2" rx="1" transform="translate(705 951)"/>
        <rect id="사각형_9542" data-name="사각형 9542" class="cls-4" width="17" height="2" rx="1" transform="translate(706 957)"/>
        <rect id="사각형_9564" data-name="사각형 9564" width="8" height="6" rx="2" transform="translate(704 933)" style="fill:#f0dbac"/>
    </g>
</svg>
