<svg xmlns="http://www.w3.org/2000/svg" width="48" height="48">
    <defs>
        <linearGradient id="linear-gradient" x1=".5" y1="1" x2=".5" gradientUnits="objectBoundingBox">
            <stop offset="0" stop-color="#0b75b7"/>
            <stop offset="1" stop-color="#0a8d79"/>
        </linearGradient>
        <linearGradient id="linear-gradient-2" y1="1" x2=".963" gradientUnits="objectBoundingBox">
            <stop offset="0" stop-color="#0099f8"/>
            <stop offset="1" stop-color="#05c3a7"/>
        </linearGradient>
        <style>
            .cls-5{fill:#fff}
        </style>
    </defs>
    <g id="img_imglist" transform="translate(-390 -525)">
        <rect id="사각형_9719" data-name="사각형 9719" width="38" height="30" rx="4" transform="translate(398 537)" style="fill:url(#linear-gradient)"/>
        <g id="그룹_2887" data-name="그룹 2887" transform="translate(-325 -556)">
            <rect id="사각형_7480" data-name="사각형 7480" width="40" height="32" rx="4" transform="translate(717 1087)" style="fill:url(#linear-gradient-2)"/>
            <rect id="사각형_7478" data-name="사각형 7478" width="7" height="7" rx="3.5" transform="translate(723.387 1093.522)" style="fill:#f0dbac"/>
            <g id="그룹_2985" data-name="그룹 2985" transform="translate(724 1099.294)">
                <path id="다각형_4" data-name="다각형 4" class="cls-5" d="M5.421 2.03a2 2 0 0 1 3.157 0l2.911 3.742A2 2 0 0 1 9.911 9H4.089a2 2 0 0 1-1.578-3.228z" transform="translate(-2 4)"/>
                <path id="다각형_5" data-name="다각형 5" class="cls-5" d="M10 1.693a2 2 0 0 1 3 0l7.061 7.981a2 2 0 0 1-1.5 3.326H4.439a2 2 0 0 1-1.5-3.325z" transform="translate(5)"/>
            </g>
        </g>
    </g>
</svg>
