<svg xmlns="http://www.w3.org/2000/svg" width="40" height="40">
    <defs>
        <style>
            .cls-1{fill:none}.cls-2{fill:#fff}
        </style>
    </defs>
    <g id="btn_del" transform="translate(-1204 -734)">
        <path id="사각형_9917" data-name="사각형 9917" class="cls-1" transform="translate(1204 734)" d="M0 0h40v40H0z"/>
        <rect id="사각형_9624" data-name="사각형 9624" class="cls-2" width="20" height="2" rx="1" transform="translate(1214 747)"/>
        <rect id="사각형_9625" data-name="사각형 9625" class="cls-2" width="6" height="2" rx="1" transform="translate(1221 743)"/>
        <g id="사각형_9626" data-name="사각형 9626" style="stroke:#fff;stroke-width:2px;fill:none">
            <path d="M0 0h16v14a4 4 0 0 1-4 4H4a4 4 0 0 1-4-4V0z" style="stroke:none" transform="translate(1216 747)"/>
            <path class="cls-1" d="M2 1h12a1 1 0 0 1 1 1v12a3 3 0 0 1-3 3H4a3 3 0 0 1-3-3V2a1 1 0 0 1 1-1z" transform="translate(1216 747)"/>
        </g>
        <rect id="사각형_9690" data-name="사각형 9690" class="cls-2" width="2" height="8" rx="1" transform="translate(1221 752)"/>
        <rect id="사각형_9691" data-name="사각형 9691" class="cls-2" width="2" height="8" rx="1" transform="translate(1225 752)"/>
    </g>
</svg>
