<svg xmlns="http://www.w3.org/2000/svg" width="112" height="26">
    <defs>
        <style>
            .cls-2{fill:#fff}
        </style>
    </defs>
    <g id="_1005_xcaliber_logo_cw" data-name="1005_xcaliber_logo_cw" transform="translate(-360 -99)">
        <g id="_1005_xcaliber_logo_cw-2" data-name="1005_xcaliber_logo_cw" transform="translate(208.352 -555.69)">
            <g id="그룹_6350" data-name="그룹 6350" transform="translate(185.686 660.701)">
                <path id="패스_4300" data-name="패스 4300" class="cls-2" d="M184.405 671.593h-3.2l-3.022-4.387-3.093 4.387h-2.99l4.568-6.334-4.55-6.407h3.2l2.985 4.313 3.058-4.313h2.985l-4.533 6.279z" transform="translate(-172.102 -657.905)"/>
                <path id="패스_4301" data-name="패스 4301" class="cls-2" d="M180.932 665.34a6.567 6.567 0 0 1 6.809-6.662 6.315 6.315 0 0 1 5.222 2.257l-1.965 1.6a4.283 4.283 0 0 0-3.258-1.421 4.224 4.224 0 0 0 0 8.447 4.287 4.287 0 0 0 3.258-1.42l1.983 1.564a6.273 6.273 0 0 1-5.24 2.295 6.566 6.566 0 0 1-6.809-6.66z" transform="translate(-166.08 -658.024)"/>
                <path id="패스_4302" data-name="패스 4302" class="cls-2" d="M197.012 660.683h1.855v9.848h-2.255v-1.31a4.007 4.007 0 0 1-3.2 1.492 5.154 5.154 0 0 1 0-10.3 3.957 3.957 0 0 1 2.911 1.166zm-.584 4.877a2.77 2.77 0 1 0-2.767 2.913 2.756 2.756 0 0 0 2.768-2.913z" transform="translate(-160.973 -656.843)"/>
                <path id="패스_4303" data-name="패스 4303" class="cls-2" d="M195.79 671.977v-12.943l2.439-.745v13.688z" transform="translate(-155.948 -658.289)"/>
                <path id="패스_4304" data-name="패스 4304" class="cls-2" d="M198.247 659.733a1.535 1.535 0 1 1 1.527 1.4 1.468 1.468 0 0 1-1.527-1.4zm.309 12.214v-9.483H201v9.483z" transform="translate(-154.273 -658.26)"/>
                <path id="패스_4305" data-name="패스 4305" class="cls-2" d="M211.519 667.006a5 5 0 0 1-4.989 5.152 4 4 0 0 1-3.2-1.492v1.31h-2.257v-12.942l2.439-.745v4.841a3.965 3.965 0 0 1 3.021-1.273 4.988 4.988 0 0 1 4.986 5.149zm-2.476 0a2.77 2.77 0 1 0-2.767 2.913 2.747 2.747 0 0 0 2.767-2.913z" transform="translate(-152.347 -658.289)"/>
                <path id="패스_4306" data-name="패스 4306" class="cls-2" d="M217.806 666.453h-7.353a2.725 2.725 0 0 0 2.874 2.129 4.12 4.12 0 0 0 2.895-1.056l1.292 1.51a6.094 6.094 0 0 1-4.24 1.675 5.059 5.059 0 0 1-5.406-5.152 4.966 4.966 0 0 1 5.041-5.15c2.985 0 4.9 2.057 4.9 5.243zm-7.337-2.038h4.731a2.223 2.223 0 0 0-2.294-1.875 2.336 2.336 0 0 0-2.437 1.875z" transform="translate(-147.712 -656.843)"/>
                <path id="패스_4307" data-name="패스 4307" class="cls-2" d="M217.345 661.719a4.362 4.362 0 0 1 2.967-1.2v2.4c-1.4 0-3.221.491-3.221 2.583v4.952h-2.439v-9.848h1.857z" transform="translate(-143.085 -656.769)"/>
            </g>
            <path id="패스_4308" data-name="패스 4308" d="m171.735 667.689 5.222-7.6a3.448 3.448 0 0 0-2.856-5.4h-5.871a3.459 3.459 0 0 0-2.854 1.5l-.77 1.12-.769-1.12a3.462 3.462 0 0 0-2.856-1.5h-5.872a3.448 3.448 0 0 0-2.854 5.4l5.222 7.6-5.222 7.6a3.449 3.449 0 0 0 2.854 5.4h5.872a3.462 3.462 0 0 0 2.856-1.5l.769-1.12.77 1.12a3.459 3.459 0 0 0 2.854 1.5h5.87a3.449 3.449 0 0 0 2.856-5.4zm-17.615-10.07a1.044 1.044 0 0 1 .935-.563H161a1.055 1.055 0 0 1 .873.459l1.63 2.374-4.252 6.189-5.064-7.373a1.034 1.034 0 0 1-.067-1.086zm.062 19.056 5.064-7.373 4.252 6.19-1.63 2.374a1.059 1.059 0 0 1-.873.459h-5.941a1.044 1.044 0 0 1-.935-.563 1.033 1.033 0 0 1 .064-1.087zm6.171-8.986 4.252-6.189 4.252 6.189-4.252 6.191zm5.359-7.8 1.631-2.374a1.055 1.055 0 0 1 .873-.459h5.939a1.053 1.053 0 0 1 .873 1.65l-5.064 7.373zm4.252 9.413 5.064 7.373a1.053 1.053 0 0 1-.873 1.65h-5.939a1.059 1.059 0 0 1-.873-.459l-1.631-2.374z" style="fill:#483cf2"/>
        </g>
    </g>
</svg>
