<svg xmlns="http://www.w3.org/2000/svg" width="190" height="190">
    <defs>
        <linearGradient id="linear-gradient" y1=".5" x2="1" y2=".5" gradientUnits="objectBoundingBox">
            <stop offset="0" stop-color="#fff" stop-opacity=".6"/>
            <stop offset="1" stop-color="#fff" stop-opacity=".302"/>
        </linearGradient>
        <linearGradient id="linear-gradient-3" x1=".5" x2=".5" y2="1" gradientUnits="objectBoundingBox">
            <stop offset="0" stop-color="#4c64db"/>
            <stop offset="1" stop-color="#142792"/>
        </linearGradient>
        <linearGradient id="linear-gradient-4" x1=".5" x2=".5" y2="1" gradientUnits="objectBoundingBox">
            <stop offset="0" stop-color="#3248ba"/>
            <stop offset="1" stop-color="#142792"/>
        </linearGradient>
        <linearGradient id="linear-gradient-7" y1=".5" x2="1" y2=".5" gradientUnits="objectBoundingBox">
            <stop offset="0" stop-color="#05c3a7"/>
            <stop offset="1" stop-color="#9fefe3"/>
        </linearGradient>
        <linearGradient id="linear-gradient-8" x1=".069" y1=".195" x2=".919" y2="1" gradientUnits="objectBoundingBox">
            <stop offset="0" stop-color="#79e2fd"/>
            <stop offset="1" stop-color="#5470f8"/>
        </linearGradient>
        <style>
            .cls-4{fill:#fff}.cls-3{fill:url(#linear-gradient)}.cls-5{fill:url(#linear-gradient-3)}.cls-6{fill:url(#linear-gradient-4)}.cls-7{fill:url(#linear-gradient-7)}.cls-12{fill:none}.cls-11{stroke:none}
        </style>
    </defs>
    <g id="img_subscription" transform="translate(-1202 -375)">
        <g id="사각형_7489" data-name="사각형 7489" transform="translate(1257 390.5)" style="stroke-width:4px;stroke-linejoin:round;fill:#5470f8;stroke:#1531d8">
            <rect class="cls-11" width="109.5" height="173.501" rx="8"/>
            <rect class="cls-12" x="2" y="2" width="105.5" height="169.501" rx="6"/>
        </g>
        <rect id="사각형_7501" data-name="사각형 7501" class="cls-3" width="76" height="8" rx="4" transform="translate(1273.5 409.5)"/>
        <rect id="사각형_7502" data-name="사각형 7502" class="cls-3" width="60" height="8" rx="4" transform="translate(1273.672 429.383)"/>
        <path id="사각형_7490" data-name="사각형 7490" class="cls-4" d="M16 0h76v139H0V16A16 16 0 0 1 16 0z" transform="translate(1211 425)"/>
        <path id="사각형_7494" data-name="사각형 7494" class="cls-5" d="M23.5 0A23.5 23.5 0 0 1 47 23.5V99H0V23.5A23.5 23.5 0 0 1 23.5 0z" transform="translate(1293.62 465)"/>
        <path id="사각형_7493" data-name="사각형 7493" class="cls-6" d="M10 0a10 10 0 0 1 10 10v89H0V10A10 10 0 0 1 10 0z" transform="translate(1293.695 425.268)"/>
        <path id="사각형_7497" data-name="사각형 7497" class="cls-6" d="M0 0h20v39A20 20 0 0 1 0 59V0z" transform="translate(1313.622 465.174)"/>
        <path id="사각형_7495" data-name="사각형 7495" class="cls-4" d="M0 0h15v51.5A7.5 7.5 0 0 1 7.5 59 7.5 7.5 0 0 1 0 51.5V0z" transform="translate(1313.635 465.174)"/>
        <path id="사각형_7498" data-name="사각형 7498" class="cls-4" d="M0 0h8a8 8 0 0 1 8 8v43a8 8 0 0 1-8 8 8 8 0 0 1-8-8V0z" transform="translate(1328.5 465.174)"/>
        <path id="사각형_7496" data-name="사각형 7496" class="cls-5" d="M8 0a8 8 0 0 1 8 8v91H0V8a8 8 0 0 1 8-8z" transform="translate(1328.5 465)"/>
        <rect id="사각형_7499" data-name="사각형 7499" class="cls-7" width="52" height="8" rx="4" transform="translate(1228 465.313)"/>
        <path id="패스_3600" data-name="패스 3600" d="M4 0h44a4 4 0 0 1 4 4v8a4 4 0 0 1-4 4H4a4 4 0 0 1-4-4V4a4 4 0 0 1 4-4z" transform="translate(1228 524)" style="fill:url(#linear-gradient-8)"/>
        <rect id="사각형_7500" data-name="사각형 7500" class="cls-7" width="40" height="8" rx="4" transform="translate(1228 481.188)"/>
        <g id="타원_921" data-name="타원 921" transform="translate(1337 377)" style="fill:#05c3a7;stroke:#00a597;stroke-width:4px">
            <circle class="cls-11" cx="24" cy="24" r="24"/>
            <circle class="cls-12" cx="24" cy="24" r="22"/>
        </g>
        <g id="그룹_2914" data-name="그룹 2914" transform="translate(1352.5 395.5)">
            <path id="패스_2510" data-name="패스 2510" d="m-22194.01-19969.215 7.158 6.707 10.842-12" transform="translate(22194.01 19974.508)" style="stroke:#fff;stroke-linecap:round;fill:none;stroke-width:4px;stroke-linejoin:round"/>
        </g>
    </g>
</svg>
