<svg xmlns="http://www.w3.org/2000/svg" width="208" height="190" viewBox="0 0 208 190">
    <defs>
        <linearGradient id="linear-gradient" y1=".5" x2="1" y2=".5" gradientUnits="objectBoundingBox">
            <stop offset="0" stop-color="#05c3a7"/>
            <stop offset="1" stop-color="#9fefe3"/>
        </linearGradient>
        <linearGradient id="linear-gradient-3" x1=".035" y1=".5" x2=".965" y2=".5" gradientUnits="objectBoundingBox">
            <stop offset="0" stop-color="#79e2fd"/>
            <stop offset="1" stop-color="#5470f8"/>
        </linearGradient>
        <style>
            .cls-2{fill:#fff}.cls-3{fill:url(#linear-gradient)}
        </style>
    </defs>
    <g id="img_error" transform="translate(-856 -490)">
        <g id="그룹_6426" data-name="그룹 6426" transform="translate(-186 -84)">
            <rect id="사각형_7490" data-name="사각형 7490" class="cls-2" width="146" height="120" rx="14" transform="translate(1070 622)"/>
            <rect id="사각형_7499" data-name="사각형 7499" class="cls-3" width="80" height="8" rx="4" transform="translate(1094 662)"/>
            <rect id="사각형_7500" data-name="사각형 7500" class="cls-3" width="50" height="8" rx="4" transform="translate(1094 678)"/>
            <path id="사각형_10254" data-name="사각형 10254" d="M14 0h106a14 14 0 0 1 14 14v6H0v-6A14 14 0 0 1 14 0z" transform="translate(1070 622)" style="fill:#5470f8"/>
            <rect id="사각형_10256" data-name="사각형 10256" width="98" height="18" rx="4" transform="translate(1094 704)" style="fill:url(#linear-gradient-3)"/>
            <rect id="사각형_10255" data-name="사각형 10255" class="cls-2" width="8" height="8" rx="4" transform="translate(1083 628)"/>
            <rect id="사각형_10257" data-name="사각형 10257" class="cls-2" width="8" height="8" rx="4" transform="translate(1095 628)"/>
            <rect id="사각형_10258" data-name="사각형 10258" class="cls-2" width="8" height="8" rx="4" transform="translate(1107 628)"/>
            <g id="그룹_6425" data-name="그룹 6425" transform="translate(-552 99)">
                <g id="다각형_13" data-name="다각형 13" style="fill:#ff706e">
                    <path d="M57.267 54H16.733c-2.619 0-4.924-1.377-6.164-3.684-1.241-2.307-1.12-4.99.324-7.175L31.16 12.468a6.902 6.902 0 0 1 2.6-2.357A7.06 7.06 0 0 1 37 9.326a7.06 7.06 0 0 1 3.24.785 6.902 6.902 0 0 1 2.6 2.357L63.107 43.14c1.444 2.186 1.565 4.868.324 7.175C62.191 52.623 59.886 54 57.267 54z" style="stroke:none" transform="translate(1718 498)"/>
                    <path d="M37 11.326c-1.709 0-3.23.818-4.172 2.244L12.562 44.244a4.93 4.93 0 0 0-.232 5.124A4.93 4.93 0 0 0 16.733 52h40.534a4.93 4.93 0 0 0 4.403-2.632 4.93 4.93 0 0 0-.232-5.124L41.172 13.57A4.923 4.923 0 0 0 37 11.326m0-4c2.865 0 5.73 1.347 7.509 4.039l20.267 30.674C68.729 48.022 64.438 56 57.266 56H16.734c-7.171 0-11.462-7.978-7.509-13.961l20.267-30.674C31.27 8.673 34.135 7.326 37 7.326z" style="fill:#d95351;stroke:none" transform="translate(1718 498)"/>
                </g>
                <g id="그룹_6424" data-name="그룹 6424" transform="translate(594.283 -43)">
                    <rect id="사각형_10252" data-name="사각형 10252" class="cls-2" width="5" height="16" rx="2.5" transform="translate(1158.717 562)"/>
                    <rect id="사각형_10253" data-name="사각형 10253" class="cls-2" width="5" height="5" rx="2.5" transform="translate(1158.717 583)"/>
                </g>
            </g>
        </g>
    </g>
</svg>
