<svg xmlns="http://www.w3.org/2000/svg" width="190" height="190">
    <defs>
        <style>
            .cls-2{fill:#4e536b}.cls-3{fill:#666982}.cls-4{fill:#2a304d}.cls-5{fill:#1a203d}.cls-7{fill:none;stroke:#4e536b;stroke-linecap:round;stroke-width:4px}
        </style>
    </defs>
    <g id="img_subscription_d" transform="translate(-1202 -375)">
        <rect id="사각형_7489" data-name="사각형 7489" class="cls-2" width="109.5" height="173.501" rx="8" transform="translate(1257 390.5)"/>
        <rect id="사각형_7501" data-name="사각형 7501" class="cls-3" width="76" height="8" rx="4" transform="translate(1273.5 409.5)"/>
        <rect id="사각형_7502" data-name="사각형 7502" class="cls-3" width="60" height="8" rx="4" transform="translate(1273.672 429.383)"/>
        <path id="패스_4271" data-name="패스 4271" class="cls-4" d="M16 0h76v139H0V16A16 16 0 0 1 16 0z" transform="translate(1211 425)"/>
        <path id="사각형_7494" data-name="사각형 7494" class="cls-5" d="M23.5 0A23.5 23.5 0 0 1 47 23.5V99H0V23.5A23.5 23.5 0 0 1 23.5 0z" transform="translate(1293.62 465)"/>
        <path id="사각형_7493" data-name="사각형 7493" class="cls-5" d="M10 0a10 10 0 0 1 10 10v89H0V10A10 10 0 0 1 10 0z" transform="translate(1293.695 425.268)"/>
        <path id="사각형_7497" data-name="사각형 7497" class="cls-5" d="M0 0h20v39A20 20 0 0 1 0 59V0z" transform="translate(1313.622 465.174)"/>
        <path id="사각형_7495" data-name="사각형 7495" class="cls-4" d="M0 0h15v51.5A7.5 7.5 0 0 1 7.5 59 7.5 7.5 0 0 1 0 51.5V0z" transform="translate(1313.635 465.174)"/>
        <path id="사각형_7498" data-name="사각형 7498" class="cls-4" d="M0 0h8a8 8 0 0 1 8 8v43a8 8 0 0 1-8 8 8 8 0 0 1-8-8V0z" transform="translate(1328.5 465.174)"/>
        <path id="사각형_7496" data-name="사각형 7496" class="cls-5" d="M8 0a8 8 0 0 1 8 8v91H0V8a8 8 0 0 1 8-8z" transform="translate(1328.5 465)"/>
        <rect id="사각형_7499" data-name="사각형 7499" class="cls-2" width="52" height="8" rx="4" transform="translate(1228 465.313)"/>
        <path id="패스_3600" data-name="패스 3600" class="cls-2" d="M4 0h44a4 4 0 0 1 4 4v8a4 4 0 0 1-4 4H4a4 4 0 0 1-4-4V4a4 4 0 0 1 4-4z" transform="translate(1228 524)"/>
        <rect id="사각형_7500" data-name="사각형 7500" class="cls-2" width="40" height="8" rx="4" transform="translate(1228 481.188)"/>
        <g id="패스_4272" data-name="패스 4272" style="fill:#2a304d">
            <path d="M24 46a21.93 21.93 0 0 1-15.556-6.444A21.93 21.93 0 0 1 2 24 21.93 21.93 0 0 1 8.444 8.444 21.93 21.93 0 0 1 24 2a21.93 21.93 0 0 1 15.556 6.444A21.93 21.93 0 0 1 46 24a21.93 21.93 0 0 1-6.444 15.556A21.93 21.93 0 0 1 24 46z" style="stroke:none" transform="translate(1337 377)"/>
            <path d="M24 4A19.869 19.869 0 0 0 9.858 9.858 19.869 19.869 0 0 0 4 24c0 5.342 2.08 10.365 5.858 14.142A19.869 19.869 0 0 0 24 44c5.342 0 10.365-2.08 14.142-5.858A19.869 19.869 0 0 0 44 24c0-5.342-2.08-10.365-5.858-14.142A19.869 19.869 0 0 0 24 4m0-4c13.255 0 24 10.745 24 24S37.255 48 24 48 0 37.255 0 24 10.745 0 24 0z" style="fill:#1a203d;stroke:none" transform="translate(1337 377)"/>
        </g>
        <g id="그룹_6322" data-name="그룹 6322" transform="translate(-7.5 -19.5)">
            <path id="선_61" data-name="선 61" class="cls-7" transform="translate(1361.5 413.5)" d="M14 0 0 14"/>
            <path id="선_62" data-name="선 62" class="cls-7" transform="translate(1361.5 413.5)" d="m0 0 14 14"/>
        </g>
    </g>
</svg>
