<svg xmlns="http://www.w3.org/2000/svg" width="200" height="200">
    <defs>
        <style>
            .cls-6{fill:#fff}.cls-2{fill:#dcd4ff}.cls-3{fill:#a6a5ff}.cls-4{fill:#b9befc}.cls-5{fill:#782eff}
        </style>
    </defs>
    <g id="img_service01" transform="translate(-730 -2442)">
        <g id="img_service01-2" data-name="img_service01" transform="translate(731 2442)">
            <path id="패스_1864" data-name="패스 1864" class="cls-2" d="M144.587 118.194 85.881 59.487v-.943a21.684 21.684 0 0 0 1.379-7.651V23.307C87.26 12.643 79.721 4 70.42 4H46.363c-9.3 0-16.84 8.646-16.84 19.31v4.154a2.76 2.76 0 0 1-1.969 2.636L13.4 34.342c-4.915 0-8.9 4.57-8.9 10.2V60c0 5.635 3.982 10.2 8.9 10.2h32.665a2.563 2.563 0 0 1 1.886.832v19.524a27.213 27.213 0 0 0 .446 38.025L70.019 150.2 88.5 174.846a44.139 44.139 0 1 0 56.086-56.652zm0 0" transform="translate(-4.504 -3.997)"/>
            <path id="패스_1866" data-name="패스 1866" class="cls-2" d="M380.193 343.443a42.874 42.874 0 0 1-9.971-1.138 5.518 5.518 0 0 1 2.771-10.682c.237.061 12.037 2.933 19.085-2.549 3.81-2.963 5.743-8.2 5.743-15.556a5.518 5.518 0 0 1 11.035 0c0 10.974-3.386 19.154-10.064 24.313-5.805 4.485-12.921 5.612-18.6 5.612zm0 0" transform="translate(-210.239 -176.966)"/>
            <path id="패스_1868" data-name="패스 1868" class="cls-2" d="M281.577 307.338a44.137 44.137 0 1 1-44.138-44.138 44.138 44.138 0 0 1 44.138 44.138zm0 0" transform="translate(-111.924 -151.476)"/>
            <path id="패스_1869" data-name="패스 1869" class="cls-2" d="M221.619 444.619h-36.383a3.934 3.934 0 0 1-3.935-3.933v-.93a12.851 12.851 0 0 1 12.852-12.85h27.468a8.392 8.392 0 0 1 8.392 8.392v.929a8.394 8.394 0 0 1-8.394 8.392zm0 0" transform="translate(-105.096 -244.62)"/>
            <path id="패스_1870" data-name="패스 1870" class="cls-2" d="M122.843 286.537 98.017 282.4l11.771 62.068H102.7a10.206 10.206 0 0 0-10.2 10.204v4.6a3.123 3.123 0 0 0 3.123 3.123h21.4a8.276 8.276 0 0 0 8.27-8.577zm0 0" transform="translate(-54.571 -162.399)"/>
            <path id="패스_1874" data-name="패스 1874" class="cls-3" d="M173.767 55.033h-9.424A12.643 12.643 0 0 1 151.7 42.39V4h16.552A16.551 16.551 0 0 1 184.8 20.55V44a11.034 11.034 0 0 1-11.035 11.033zm0 0" transform="translate(-88.253 -3.998)"/>
            <path id="패스_1876" data-name="패스 1876" class="cls-3" d="M16.916 83.154v-6.9a5.471 5.471 0 0 0-1.236-3.442l-2.28.688c-4.915 0-8.9 4.57-8.9 10.2v4.969h6.9a5.517 5.517 0 0 0 5.516-5.518zm0 0" transform="translate(-4.504 -43.153)"/>
            <g id="그룹_2010" data-name="그룹 2010" transform="translate(77.126 59.484)">
                <path id="패스_1880" data-name="패스 1880" class="cls-4" d="M188.893 289.222a3.429 3.429 0 0 1-1.928-.589 3.429 3.429 0 0 0 1.928.589zm0 0" transform="translate(-185.445 -225.43)"/>
                <path id="패스_1881" data-name="패스 1881" class="cls-4" d="M183.438 282a3.443 3.443 0 0 0 1.52 2.859 3.443 3.443 0 0 1-1.52-2.859zm0 0" transform="translate(-183.438 -221.656)"/>
                <path id="패스_1882" data-name="패스 1882" class="cls-4" d="M185.542 142.629a3.449 3.449 0 0 0-2.1 3.177 3.449 3.449 0 0 1 2.1-3.177zm0 0" transform="translate(-183.437 -142.358)"/>
                <path id="패스_1883" data-name="패스 1883" class="cls-4" d="M188.32 142.271a3.44 3.44 0 0 1 1.344-.271 3.44 3.44 0 0 0-1.344.271zm0 0" transform="translate(-186.215 -142)"/>
                <path id="패스_1884" data-name="패스 1884" class="cls-4" d="M345.95 286.053c-.027.029-.047.062-.074.089a3.438 3.438 0 0 1-2.438 1.012 3.446 3.446 0 0 0 3.194-2.154 3.548 3.548 0 0 1-.682 1.053zm0 0" transform="translate(-274.473 -223.36)"/>
                <path id="패스_1885" data-name="패스 1885" class="cls-4" d="M351.086 283.563a3.677 3.677 0 0 1-.145.483 3.45 3.45 0 0 0 .145-.483zm0 0" transform="translate(-278.742 -222.545)"/>
            </g>
            <g id="그룹_2014" data-name="그룹 2014" transform="translate(84.194 62.631)">
                <g id="그룹_2013" data-name="그룹 2013">
                    <path id="패스_1877" data-name="패스 1877" class="cls-3" d="M172.059 203.034a8.63 8.63 0 0 1-8.621-8.621v-63.792a8.63 8.63 0 0 1 8.621-8.621h72.413a8.631 8.631 0 0 1 8.621 8.621v63.792a8.631 8.631 0 0 1-8.621 8.621zm0 0" transform="translate(-163.438 -122)"/>
                    <path id="패스_1878" data-name="패스 1878" class="cls-5" d="M263.284 142h-60.721l54.712 54.714a43.867 43.867 0 0 1 9.456 4.65v-55.916a3.446 3.446 0 0 0-3.446-3.448zm0 0" transform="translate(-185.7 -133.379)"/>
                    <path id="패스_1879" data-name="패스 1879" class="cls-5" d="M191.681 142h-4.8a3.448 3.448 0 0 0-3.448 3.448v56.9a3.448 3.448 0 0 0 3.448 3.448H252.4a3.437 3.437 0 0 0 2.438-1.01c.027-.027.047-.061.072-.089a3.422 3.422 0 0 0 .936-2.35v-.98a44.021 44.021 0 0 0-9.456-4.65zm0 0" transform="translate(-174.819 -133.379)"/>
                    <path id="패스_1886" data-name="패스 1886" class="cls-6" d="m244.16 210.08-12.934-12.9v-.005L205.2 171.218l-8.841-8.818-12.894-12.86c-.005.067-.02.131-.02.2v7.083l7.866 7.846a42.369 42.369 0 0 1-7.866 9.587v6.654a47.592 47.592 0 0 0 11.614-12.5l5.007 4.994a54.094 54.094 0 0 1-16.621 15.855v5.969a59.243 59.243 0 0 0 20.339-18.115l4.935 4.921a65.889 65.889 0 0 1-25.274 20.912v3.691a3.416 3.416 0 0 0 .492 1.749 70.961 70.961 0 0 0 28.48-22.664l4.943 4.93a78.014 78.014 0 0 1-21.691 19.433h9.25a83.2 83.2 0 0 0 16.13-15.754l4.915 4.9a91.235 91.235 0 0 1-10.178 10.855h7.414a96.742 96.742 0 0 0 6.432-7.184l7.2 7.184h7.322zm0 0" transform="translate(-174.818 -137.666)"/>
                </g>
                <path id="패스_1887" data-name="패스 1887" class="cls-6" d="M252.034 198.543a2.555 2.555 0 0 0 .975.613 41.448 41.448 0 0 1 8.9 4.378 2.58 2.58 0 0 0 1.014.385 3.4 3.4 0 0 0 .4-1.574v-4.009a46.566 46.566 0 0 0-8.038-3.861L202.806 142h-6.243a2.577 2.577 0 0 0 .758 1.828zm0 0" transform="translate(-182.286 -133.38)"/>
            </g>
        </g>
    </g>
</svg>
