<svg xmlns="http://www.w3.org/2000/svg" xmlns:xlink="http://www.w3.org/1999/xlink" width="370" height="244">
    <defs>
        <linearGradient id="linear-gradient" x1=".5" x2=".5" y2="1" gradientUnits="objectBoundingBox">
            <stop offset="0" stop-color="#fff"/>
            <stop offset="1" stop-color="#fff" stop-opacity="0"/>
        </linearGradient>
        <linearGradient id="linear-gradient-2" x1=".5" x2=".5" y2="1" gradientUnits="objectBoundingBox">
            <stop offset="0" stop-color="#f9fafe"/>
            <stop offset="1" stop-color="#d0d3f4"/>
        </linearGradient>
        <linearGradient id="linear-gradient-3" x1=".5" x2=".5" y2="1" gradientUnits="objectBoundingBox">
            <stop offset="0" stop-color="#212e74"/>
            <stop offset="1" stop-color="#6a639e"/>
        </linearGradient>
        <linearGradient id="linear-gradient-6" x1=".78" y1=".911" x2=".209" y2=".156" xlink:href="#linear-gradient-2"/>
        <style>
            .cls-11{fill:#fff}.cls-2{fill:#2d3661}.cls-4{fill:#011f5f}.cls-6{fill:#464d5d}.cls-9{fill:#7c8cd8}.cls-13{fill:#6b7295}.cls-14{fill:#9095b0}.cls-16{fill:#ffd5b8}.cls-17{fill:url(#linear-gradient-2)}.cls-18{fill:#ff6857}.cls-19{fill:#ffb27d}.cls-20{fill:#ebedf5}.cls-21{fill:url(#linear-gradient-3)}.cls-23{fill:#b4bede}.cls-25{fill:#ffc044}.cls-26{fill:#e49b31}
        </style>
    </defs>
    <g id="img_main_03" transform="translate(-1430 -3683)">
        <g id="그룹_2183" data-name="그룹 2183" transform="translate(1430.338 3714.627)">
            <ellipse id="_Path_" data-name="&lt;Path&gt;" class="cls-2" cx="108.783" cy="7.514" rx="108.783" ry="7.514" transform="translate(73.418 197.26)"/>
            <ellipse id="_Path_2" data-name="&lt;Path&gt;" class="cls-2" cx="9.51" cy="1.63" rx="9.51" ry="1.63" transform="translate(311.796 208.18)"/>
            <g id="그룹_2166" data-name="그룹 2166">
                <path id="패스_2336" data-name="패스 2336" d="M251.505 521.676s-45.417-48.764-7.681-101.557c33.482-46.842 72.519-43.64 101.16-24.631 12.2 8.1 47.368 1 77.3-46.666 40.821-65 182.324-25.577 156.523 74.427-12.485 48.395 38 50.154 12.275 98.53z" transform="translate(-228.836 -317.005)" style="opacity:.2;fill:url(#linear-gradient)"/>
                <path id="패스_2345" data-name="패스 2345" class="cls-4" d="m857.625 754.4-26 134.393a4.43 4.43 0 0 0 4.35 5.271h13.71z" transform="translate(-743.179 -690.268)"/>
                <path id="패스_2352" data-name="패스 2352" d="m910.885 747.915-17.23 131.953a7.309 7.309 0 0 0 7.248 8.255h25.277l-14.253-140.685z" transform="translate(-796.126 -684.328)" style="fill:#61697b"/>
                <path id="패스_2353" data-name="패스 2353" class="cls-6" d="M966.555 750.689 958.842 881.8a8.592 8.592 0 0 0 8.577 9.1h37.7z" transform="translate(-851.796 -687.103)"/>
                <path id="패스_2354" data-name="패스 2354" d="m1009.564 757.988 3.75 130.107a8.594 8.594 0 0 0 8.577 9.1h37.7z" transform="translate(-895.094 -693.332)" style="fill:#171f41"/>
                <path id="패스_2355" data-name="패스 2355" d="M1198.9 887.556h-148.639a7.685 7.685 0 0 1-7.56-6.3l-22.618-123.69a9.144 9.144 0 0 1 9-10.789h146.887a7.685 7.685 0 0 1 7.56 6.3l22.933 125.412a7.685 7.685 0 0 1-7.563 9.067z" transform="translate(-903.942 -683.097)" style="fill:#464f7b;stroke:rgba(255,255,255,.6)"/>
                <path id="패스_2356" data-name="패스 2356" class="cls-9" d="M1014.044 773.626h164.366l-4.214-23.353a4.255 4.255 0 0 0-4.188-3.5H1010.8a1.394 1.394 0 0 0-1.371 1.644z" transform="translate(-894.96 -683.761)"/>
                <g id="그룹_2159" data-name="그룹 2159" transform="translate(115.801 55.985)" style="opacity:.4">
                    <g id="그룹_2146" data-name="그룹 2146">
                        <g id="그룹_2145" data-name="그룹 2145">
                            <path id="패스_2357" data-name="패스 2357" class="cls-11" d="M1025.769 698.842a7.133 7.133 0 0 0-7.126 7.125h1.369a5.758 5.758 0 1 1 7.64 5.441 5.693 5.693 0 0 1-1.555.308v1.369a7.042 7.042 0 0 0 1.821-.323 7.126 7.126 0 0 0-2.149-13.919z" transform="translate(-1018.643 -698.842)"/>
                        </g>
                        <path id="패스_2358" data-name="패스 2358" class="cls-11" d="M1064.317 781.988a1.581 1.581 0 0 1-.055.412 1.548 1.548 0 1 1 .055-.412z" transform="translate(-1054.987 -768.48)"/>
                    </g>
                    <g id="그룹_2148" data-name="그룹 2148" transform="translate(25.549)">
                        <g id="그룹_2147" data-name="그룹 2147">
                            <path id="패스_2359" data-name="패스 2359" class="cls-11" d="M1200.025 698.842a7.133 7.133 0 0 0-7.126 7.125h1.367a5.758 5.758 0 0 1 11.516 0 5.7 5.7 0 0 1-.3 1.823 5.779 5.779 0 0 1-3.578 3.618 5.705 5.705 0 0 1-1.556.308v1.369a7.043 7.043 0 0 0 1.821-.323 7.125 7.125 0 0 0-2.147-13.919z" transform="translate(-1192.899 -698.842)"/>
                        </g>
                        <path id="패스_2360" data-name="패스 2360" class="cls-11" d="M1238.562 781.988a1.586 1.586 0 0 1-.055.412 1.553 1.553 0 1 1 .055-.412z" transform="translate(-1229.233 -768.48)"/>
                    </g>
                    <g id="그룹_2150" data-name="그룹 2150" transform="translate(51.098)">
                        <g id="그룹_2149" data-name="그룹 2149">
                            <path id="패스_2361" data-name="패스 2361" class="cls-11" d="M1374.281 698.842a7.133 7.133 0 0 0-7.126 7.125h1.367a5.757 5.757 0 1 1 6.085 5.749v1.369a7.056 7.056 0 0 0 1.821-.323 7.125 7.125 0 0 0-2.147-13.919z" transform="translate(-1367.155 -698.842)"/>
                        </g>
                        <path id="패스_2362" data-name="패스 2362" class="cls-11" d="M1412.818 781.988a1.592 1.592 0 0 1-.055.412 1.554 1.554 0 1 1 .055-.412z" transform="translate(-1403.49 -768.48)"/>
                    </g>
                    <g id="그룹_2152" data-name="그룹 2152" transform="translate(76.648)">
                        <g id="그룹_2151" data-name="그룹 2151">
                            <path id="패스_2363" data-name="패스 2363" class="cls-11" d="M1548.536 698.842a7.131 7.131 0 0 0-7.125 7.125h1.368a5.758 5.758 0 1 1 7.64 5.441 5.7 5.7 0 0 1-1.555.308v1.369a7.056 7.056 0 0 0 1.821-.323 7.126 7.126 0 0 0-2.149-13.919z" transform="translate(-1541.411 -698.842)"/>
                        </g>
                        <path id="패스_2364" data-name="패스 2364" class="cls-11" d="M1587.074 781.988a1.6 1.6 0 0 1-.055.412 1.548 1.548 0 1 1 .055-.412z" transform="translate(-1577.745 -768.48)"/>
                    </g>
                    <g id="그룹_2154" data-name="그룹 2154" transform="translate(102.195)">
                        <g id="그룹_2153" data-name="그룹 2153">
                            <path id="패스_2365" data-name="패스 2365" class="cls-11" d="M1722.782 698.842a7.133 7.133 0 0 0-7.126 7.125h1.368a5.758 5.758 0 1 1 7.64 5.441 5.682 5.682 0 0 1-1.555.308v1.369a7.042 7.042 0 0 0 1.821-.323 7.125 7.125 0 0 0-2.147-13.919z" transform="translate(-1715.656 -698.842)"/>
                        </g>
                        <path id="패스_2366" data-name="패스 2366" class="cls-11" d="M1761.318 781.988a1.576 1.576 0 0 1-.055.412 1.549 1.549 0 1 1 .055-.412z" transform="translate(-1751.99 -768.48)"/>
                    </g>
                    <g id="그룹_2156" data-name="그룹 2156" transform="translate(127.745)">
                        <g id="그룹_2155" data-name="그룹 2155">
                            <path id="패스_2367" data-name="패스 2367" class="cls-11" d="M1897.038 698.842a7.133 7.133 0 0 0-7.126 7.125h1.367a5.758 5.758 0 0 1 11.516 0 5.7 5.7 0 0 1-.3 1.823 5.777 5.777 0 0 1-3.58 3.618 5.68 5.68 0 0 1-1.555.308v1.369a7.043 7.043 0 0 0 1.821-.323 7.126 7.126 0 0 0-2.147-13.919z" transform="translate(-1889.912 -698.842)"/>
                        </g>
                        <path id="패스_2368" data-name="패스 2368" class="cls-11" d="M1935.575 781.988a1.576 1.576 0 0 1-.055.412 1.546 1.546 0 1 1 .055-.412z" transform="translate(-1926.246 -768.48)"/>
                    </g>
                    <g id="그룹_2158" data-name="그룹 2158" transform="translate(153.294)">
                        <g id="그룹_2157" data-name="그룹 2157">
                            <path id="패스_2369" data-name="패스 2369" class="cls-11" d="M2071.293 698.842a7.131 7.131 0 0 0-7.125 7.125h1.367a5.758 5.758 0 1 1 7.64 5.441 5.7 5.7 0 0 1-1.555.308v1.369a7.043 7.043 0 0 0 1.821-.323 7.126 7.126 0 0 0-2.149-13.919z" transform="translate(-2064.168 -698.842)"/>
                        </g>
                        <path id="패스_2370" data-name="패스 2370" class="cls-11" d="M2109.831 781.988a1.576 1.576 0 0 1-.055.412 1.546 1.546 0 1 1 .055-.412z" transform="translate(-2100.503 -768.48)"/>
                    </g>
                </g>
                <path id="패스_2380" data-name="패스 2380" d="M1738.58 1037.37h-8.309a2.227 2.227 0 0 1-2.083-1.746l-1.6-8.309a1.4 1.4 0 0 1 1.409-1.746h8.309a2.228 2.228 0 0 1 2.083 1.746l1.6 8.309a1.4 1.4 0 0 1-1.409 1.746z" transform="translate(-1506.959 -921.679)" style="fill:#79e2fd"/>
                <g id="그룹_2168" data-name="그룹 2168" transform="translate(136.959 103.72)">
                    <path id="패스_2371" data-name="패스 2371" class="cls-13" d="M1619.32 1160.454h-8.309a2.228 2.228 0 0 1-2.083-1.747l-1.6-8.309a1.4 1.4 0 0 1 1.41-1.747h8.309a2.227 2.227 0 0 1 2.083 1.747l1.6 8.309a1.4 1.4 0 0 1-1.41 1.747z" transform="translate(-1542.144 -1130.437)"/>
                    <path id="패스_2372" data-name="패스 2372" class="cls-13" d="M1762.321 1160.454h-8.309a2.228 2.228 0 0 1-2.083-1.747l-1.6-8.309a1.4 1.4 0 0 1 1.41-1.747h8.309a2.227 2.227 0 0 1 2.083 1.747l1.6 8.309a1.4 1.4 0 0 1-1.41 1.747z" transform="translate(-1664.179 -1130.437)"/>
                    <path id="패스_2373" data-name="패스 2373" class="cls-13" d="M1905.324 1160.454h-8.309a2.227 2.227 0 0 1-2.083-1.747l-1.6-8.309a1.4 1.4 0 0 1 1.409-1.747h8.309a2.227 2.227 0 0 1 2.083 1.747l1.6 8.309a1.4 1.4 0 0 1-1.409 1.747z" transform="translate(-1786.215 -1130.437)"/>
                    <path id="패스_2374" data-name="패스 2374" class="cls-13" d="M1190.314 1160.454h-8.309a2.227 2.227 0 0 1-2.083-1.747l-1.6-8.309a1.4 1.4 0 0 1 1.41-1.747h8.309a2.228 2.228 0 0 1 2.083 1.747l1.6 8.309a1.4 1.4 0 0 1-1.41 1.747z" transform="translate(-1176.039 -1130.437)"/>
                    <path id="패스_2375" data-name="패스 2375" class="cls-14" d="M1168.124 1029.489h-3.571a.957.957 0 0 1-.9-.75l-.689-3.571a.6.6 0 0 1 .606-.75h3.571a.957.957 0 0 1 .9.75l.689 3.571a.6.6 0 0 1-.606.75z" transform="translate(-1162.956 -1024.417)"/>
                    <path id="패스_2376" data-name="패스 2376" class="cls-13" d="M1333.317 1160.454h-8.309a2.227 2.227 0 0 1-2.083-1.747l-1.6-8.309a1.4 1.4 0 0 1 1.409-1.747h8.309a2.228 2.228 0 0 1 2.083 1.747l1.6 8.309a1.4 1.4 0 0 1-1.409 1.747z" transform="translate(-1298.075 -1130.437)"/>
                    <path id="패스_2377" data-name="패스 2377" class="cls-13" d="M1476.318 1160.454h-8.309a2.228 2.228 0 0 1-2.083-1.747l-1.6-8.309a1.4 1.4 0 0 1 1.41-1.747h8.309a2.228 2.228 0 0 1 2.084 1.747l1.6 8.309a1.4 1.4 0 0 1-1.411 1.747z" transform="translate(-1420.11 -1130.437)"/>
                    <path id="패스_2378" data-name="패스 2378" class="cls-13" d="M2048.325 1160.454h-8.309a2.227 2.227 0 0 1-2.083-1.747l-1.6-8.309a1.4 1.4 0 0 1 1.41-1.747h8.309a2.227 2.227 0 0 1 2.083 1.747l1.6 8.309a1.4 1.4 0 0 1-1.41 1.747z" transform="translate(-1908.25 -1130.437)"/>
                    <path id="패스_2379" data-name="패스 2379" class="cls-13" d="M1595.578 1037.37h-8.309a2.228 2.228 0 0 1-2.083-1.746l-1.6-8.309a1.4 1.4 0 0 1 1.409-1.746h8.309a2.228 2.228 0 0 1 2.083 1.746l1.6 8.309a1.4 1.4 0 0 1-1.409 1.746z" transform="translate(-1521.883 -1025.399)"/>
                    <path id="패스_2381" data-name="패스 2381" class="cls-13" d="M1881.581 1037.37h-8.309a2.227 2.227 0 0 1-2.083-1.746l-1.6-8.309a1.4 1.4 0 0 1 1.41-1.746h8.309a2.228 2.228 0 0 1 2.083 1.746l1.6 8.309a1.4 1.4 0 0 1-1.41 1.746z" transform="translate(-1765.952 -1025.399)"/>
                    <path id="패스_2382" data-name="패스 2382" class="cls-13" d="M2024.582 1037.37h-8.309a2.227 2.227 0 0 1-2.083-1.746l-1.6-8.309a1.4 1.4 0 0 1 1.41-1.746h8.309a2.227 2.227 0 0 1 2.083 1.746l1.6 8.309a1.4 1.4 0 0 1-1.41 1.746z" transform="translate(-1887.988 -1025.399)"/>
                    <path id="패스_2383" data-name="패스 2383" class="cls-13" d="M1644.485 1290.908h-8.309a2.228 2.228 0 0 1-2.083-1.746l-1.6-8.309a1.4 1.4 0 0 1 1.409-1.747h8.309a2.228 2.228 0 0 1 2.083 1.747l1.6 8.309a1.4 1.4 0 0 1-1.409 1.746z" transform="translate(-1563.62 -1241.764)"/>
                    <path id="패스_2384" data-name="패스 2384" class="cls-13" d="M1787.486 1290.908h-8.309a2.228 2.228 0 0 1-2.083-1.746l-1.6-8.309a1.4 1.4 0 0 1 1.41-1.747h8.309a2.228 2.228 0 0 1 2.083 1.747l1.6 8.309a1.4 1.4 0 0 1-1.41 1.746z" transform="translate(-1685.655 -1241.764)"/>
                    <path id="패스_2385" data-name="패스 2385" class="cls-13" d="M1930.488 1290.908h-8.309a2.228 2.228 0 0 1-2.083-1.746l-1.6-8.309a1.4 1.4 0 0 1 1.41-1.747h8.309a2.228 2.228 0 0 1 2.083 1.747l1.6 8.309a1.4 1.4 0 0 1-1.41 1.746z" transform="translate(-1807.689 -1241.764)"/>
                    <path id="패스_2386" data-name="패스 2386" class="cls-13" d="M1215.479 1290.908h-8.309a2.227 2.227 0 0 1-2.083-1.746l-1.6-8.309a1.4 1.4 0 0 1 1.41-1.747h8.309a2.228 2.228 0 0 1 2.083 1.747l1.6 8.309a1.4 1.4 0 0 1-1.41 1.746z" transform="translate(-1197.513 -1241.764)"/>
                    <path id="패스_2387" data-name="패스 2387" class="cls-13" d="M1358.481 1290.908h-8.309a2.227 2.227 0 0 1-2.083-1.746l-1.6-8.309a1.4 1.4 0 0 1 1.41-1.747h8.309a2.228 2.228 0 0 1 2.083 1.747l1.6 8.309a1.4 1.4 0 0 1-1.41 1.746z" transform="translate(-1319.549 -1241.764)"/>
                    <path id="패스_2388" data-name="패스 2388" class="cls-13" d="M1501.483 1290.908h-8.309a2.228 2.228 0 0 1-2.083-1.746l-1.6-8.309a1.4 1.4 0 0 1 1.409-1.747h8.309a2.228 2.228 0 0 1 2.083 1.747l1.6 8.309a1.4 1.4 0 0 1-1.409 1.746z" transform="translate(-1441.584 -1241.764)"/>
                    <path id="패스_2389" data-name="패스 2389" class="cls-13" d="M2073.49 1290.908h-8.309a2.228 2.228 0 0 1-2.083-1.746l-1.6-8.309a1.4 1.4 0 0 1 1.409-1.747h8.309a2.228 2.228 0 0 1 2.083 1.747l1.6 8.309a1.4 1.4 0 0 1-1.409 1.746z" transform="translate(-1929.724 -1241.764)"/>
                    <path id="패스_2390" data-name="패스 2390" class="cls-13" d="M1669.649 1421.363h-8.309a2.227 2.227 0 0 1-2.083-1.746l-1.6-8.309a1.4 1.4 0 0 1 1.409-1.747h8.309a2.228 2.228 0 0 1 2.083 1.747l1.6 8.309a1.4 1.4 0 0 1-1.409 1.746z" transform="translate(-1585.094 -1353.092)"/>
                    <path id="패스_2391" data-name="패스 2391" class="cls-13" d="M1812.651 1421.363h-8.309a2.227 2.227 0 0 1-2.083-1.746l-1.6-8.309a1.4 1.4 0 0 1 1.409-1.747h8.309a2.228 2.228 0 0 1 2.084 1.747l1.6 8.309a1.4 1.4 0 0 1-1.41 1.746z" transform="translate(-1707.129 -1353.092)"/>
                    <path id="패스_2392" data-name="패스 2392" class="cls-13" d="M1955.652 1421.363h-8.309a2.228 2.228 0 0 1-2.083-1.746l-1.6-8.309a1.4 1.4 0 0 1 1.41-1.747h8.309a2.227 2.227 0 0 1 2.083 1.747l1.6 8.309a1.4 1.4 0 0 1-1.41 1.746z" transform="translate(-1829.164 -1353.092)"/>
                    <path id="패스_2393" data-name="패스 2393" class="cls-13" d="M1240.643 1421.363h-8.309a2.228 2.228 0 0 1-2.083-1.746l-1.6-8.309a1.4 1.4 0 0 1 1.41-1.747h8.309a2.227 2.227 0 0 1 2.083 1.747l1.6 8.309a1.4 1.4 0 0 1-1.41 1.746z" transform="translate(-1218.989 -1353.092)"/>
                    <path id="패스_2394" data-name="패스 2394" class="cls-13" d="M1383.645 1421.363h-8.309a2.228 2.228 0 0 1-2.083-1.746l-1.6-8.309a1.4 1.4 0 0 1 1.41-1.747h8.309a2.228 2.228 0 0 1 2.083 1.747l1.6 8.309a1.4 1.4 0 0 1-1.41 1.746z" transform="translate(-1341.024 -1353.092)"/>
                    <path id="패스_2395" data-name="패스 2395" class="cls-13" d="M1526.646 1421.363h-8.309a2.227 2.227 0 0 1-2.083-1.746l-1.6-8.309a1.4 1.4 0 0 1 1.41-1.747h8.309a2.228 2.228 0 0 1 2.083 1.747l1.6 8.309a1.4 1.4 0 0 1-1.41 1.746z" transform="translate(-1463.058 -1353.092)"/>
                    <path id="패스_2396" data-name="패스 2396" class="cls-13" d="M2098.654 1421.363h-8.309a2.227 2.227 0 0 1-2.083-1.746l-1.6-8.309a1.4 1.4 0 0 1 1.409-1.747h8.309a2.228 2.228 0 0 1 2.083 1.747l1.6 8.309a1.4 1.4 0 0 1-1.409 1.746z" transform="translate(-1951.198 -1353.092)"/>
                    <path id="패스_2397" data-name="패스 2397" class="cls-13" d="M1693.391 1544.447h-8.309a2.227 2.227 0 0 1-2.082-1.747l-1.6-8.309a1.4 1.4 0 0 1 1.409-1.746h8.309a2.227 2.227 0 0 1 2.083 1.746l1.6 8.309a1.4 1.4 0 0 1-1.41 1.747z" transform="translate(-1605.355 -1458.129)"/>
                    <path id="패스_2398" data-name="패스 2398" class="cls-13" d="M1836.393 1544.447h-8.309a2.227 2.227 0 0 1-2.084-1.747l-1.6-8.309a1.4 1.4 0 0 1 1.409-1.746h8.309a2.227 2.227 0 0 1 2.083 1.746l1.6 8.309a1.4 1.4 0 0 1-1.408 1.747z" transform="translate(-1727.39 -1458.129)"/>
                    <path id="패스_2399" data-name="패스 2399" class="cls-13" d="M1979.395 1544.447h-8.309a2.228 2.228 0 0 1-2.086-1.747l-1.6-8.309a1.4 1.4 0 0 1 1.409-1.746h8.309a2.227 2.227 0 0 1 2.083 1.746l1.6 8.309a1.4 1.4 0 0 1-1.406 1.747z" transform="translate(-1849.426 -1458.129)"/>
                    <path id="패스_2400" data-name="패스 2400" class="cls-13" d="M1264.386 1544.447h-8.309a2.227 2.227 0 0 1-2.083-1.746l-1.6-8.309a1.4 1.4 0 0 1 1.41-1.746h8.309a2.228 2.228 0 0 1 2.083 1.746l1.6 8.309a1.4 1.4 0 0 1-1.41 1.746z" transform="translate(-1239.25 -1458.129)"/>
                    <path id="패스_2401" data-name="패스 2401" class="cls-13" d="M1407.388 1544.447h-8.309a2.228 2.228 0 0 1-2.079-1.747l-1.6-8.309a1.4 1.4 0 0 1 1.41-1.746h8.309a2.227 2.227 0 0 1 2.083 1.746l1.6 8.309a1.4 1.4 0 0 1-1.414 1.747z" transform="translate(-1361.285 -1458.129)"/>
                    <path id="패스_2402" data-name="패스 2402" class="cls-13" d="M1550.389 1544.447h-8.309a2.227 2.227 0 0 1-2.08-1.747l-1.6-8.309a1.4 1.4 0 0 1 1.41-1.746h8.309a2.228 2.228 0 0 1 2.083 1.746l1.6 8.309a1.4 1.4 0 0 1-1.413 1.747z" transform="translate(-1483.321 -1458.129)"/>
                    <path id="패스_2403" data-name="패스 2403" class="cls-14" d="M1238.415 1029.779H1216.4a.592.592 0 0 1-.59-.59.591.591 0 0 1 .59-.59h22.013a.591.591 0 0 1 .59.59.592.592 0 0 1-.588.59z" transform="translate(-1208.063 -1027.986)"/>
                    <path id="패스_2404" data-name="패스 2404" class="cls-14" d="M1242.98 1047.961h-22.013a.592.592 0 0 1-.59-.59.592.592 0 0 1 .59-.59h22.013a.592.592 0 0 1 .59.59.592.592 0 0 1-.59.59z" transform="translate(-1211.959 -1043.502)"/>
                </g>
                <g id="그룹_2161" data-name="그룹 2161" transform="translate(135.025 83.411)">
                    <path id="패스_2405" data-name="패스 2405" class="cls-11" d="M1158.436 888.152h-7.554a1.129 1.129 0 0 1-1.125-1.125 1.128 1.128 0 0 1 1.125-1.125h7.554a1.128 1.128 0 0 1 1.125 1.125 1.128 1.128 0 0 1-1.125 1.125z" transform="translate(-1149.757 -885.902)"/>
                    <path id="패스_2406" data-name="패스 2406" class="cls-11" d="M1299.8 888.152h-7.553a1.128 1.128 0 0 1-1.125-1.125 1.128 1.128 0 0 1 1.125-1.125h7.553a1.128 1.128 0 0 1 1.125 1.125 1.129 1.129 0 0 1-1.125 1.125z" transform="translate(-1270.398 -885.902)"/>
                    <path id="패스_2407" data-name="패스 2407" class="cls-11" d="M1441.171 888.152h-7.554a1.129 1.129 0 0 1-1.125-1.125 1.128 1.128 0 0 1 1.125-1.125h7.554a1.128 1.128 0 0 1 1.125 1.125 1.129 1.129 0 0 1-1.125 1.125z" transform="translate(-1391.038 -885.902)"/>
                    <path id="패스_2408" data-name="패스 2408" class="cls-11" d="M1582.538 888.152h-7.554a1.129 1.129 0 0 1-1.125-1.125 1.128 1.128 0 0 1 1.125-1.125h7.554a1.129 1.129 0 0 1 1.125 1.125 1.129 1.129 0 0 1-1.125 1.125z" transform="translate(-1511.678 -885.902)"/>
                    <path id="패스_2409" data-name="패스 2409" class="cls-11" d="M1723.907 888.152h-7.554a1.128 1.128 0 0 1-1.125-1.125 1.128 1.128 0 0 1 1.125-1.125h7.554a1.128 1.128 0 0 1 1.125 1.125 1.128 1.128 0 0 1-1.125 1.125z" transform="translate(-1632.319 -885.902)"/>
                    <path id="패스_2410" data-name="패스 2410" class="cls-11" d="M1865.274 888.152h-7.554a1.129 1.129 0 0 1-1.125-1.125 1.128 1.128 0 0 1 1.125-1.125h7.554a1.128 1.128 0 0 1 1.125 1.125 1.129 1.129 0 0 1-1.125 1.125z" transform="translate(-1752.959 -885.902)"/>
                    <path id="패스_2411" data-name="패스 2411" class="cls-11" d="M2006.642 888.152h-7.554a1.128 1.128 0 0 1-1.125-1.125 1.128 1.128 0 0 1 1.125-1.125h7.554a1.128 1.128 0 0 1 1.125 1.125 1.129 1.129 0 0 1-1.125 1.125z" transform="translate(-1873.6 -885.902)"/>
                </g>
                <g id="그룹_2162" data-name="그룹 2162" transform="translate(216.209 101.161)">
                    <path id="패스_2412" data-name="패스 2412" d="M1707.551 1021.654a3.935 3.935 0 0 1-3.545-1.557c-1.269-1.97-.289-4.732 2.912-8.21a40.574 40.574 0 0 1 5.1-4.571.241.241 0 1 1 .285.389c-.107.078-10.633 7.872-7.889 12.131.869 1.349 2.73 1.438 4.14 1.275a22.632 22.632 0 0 0 9.1-3.757c3.2-2.123 5.448-4.515 6.177-6.564.478-1.344.331-2.3-.44-2.829-1-.689-3.076-.69-5.564 0a17.561 17.561 0 0 0-6.261 3.1.241.241 0 0 1-.312-.368 18.073 18.073 0 0 1 6.444-3.193c2.664-.736 4.839-.711 5.967.07.668.463 1.319 1.426.62 3.388-.764 2.145-3.083 4.625-6.364 6.8a23.12 23.12 0 0 1-9.307 3.834 9.206 9.206 0 0 1-1.063.062z" transform="translate(-1703.468 -1006.961)" style="fill:#ff7261"/>
                </g>
                <g id="그룹_2165" data-name="그룹 2165" transform="translate(244.816 81.941)">
                    <path id="패스_2413" data-name="패스 2413" class="cls-16" d="m1992.39 976.17-.858-1.618s.426-2.883-3.187-4.706a1.763 1.763 0 0 0-2.065.539c-.686.992 1.308.813 1.2 2.509a3.12 3.12 0 0 0 1.819 3.245l.927 1.073z" transform="translate(-1972.635 -949.318)"/>
                    <path id="패스_2414" data-name="패스 2414" class="cls-17" d="M2042.728 984.132a28.613 28.613 0 0 1-20.172 20.2c-5.329 1.553-17.434-15.99-17.434-15.99s.426-1.617 3.092-1.246c0 0 11.787 7.8 13.271 8.651 1.317.752 9.976-9.669 13.924-11.35a10.075 10.075 0 0 1 7.319-.265z" transform="translate(-1988.836 -961.148)"/>
                    <g id="그룹_2163" data-name="그룹 2163" transform="translate(0 19.077)">
                        <path id="사각형_5615" data-name="사각형 5615" class="cls-18" transform="rotate(-100.493 5.38 1.726)" d="M0 0h3.756v18.896H0z"/>
                        <path id="패스_2415" data-name="패스 2415" class="cls-19" d="m1894.051 988.167 4.662 1.047-.684-3.694z" transform="translate(-1894.051 -981.886)"/>
                        <path id="패스_2416" data-name="패스 2416" class="cls-19" d="m2050.293 961.749.216 1.168a1.323 1.323 0 0 1-1.06 1.542l-.86.159-.684-3.694.935-.173a1.246 1.246 0 0 1 1.453.998z" transform="translate(-2025.348 -960.729)"/>
                    </g>
                    <g id="그룹_2164" data-name="그룹 2164" transform="translate(35.843 57.444)">
                        <path id="패스_2417" data-name="패스 2417" class="cls-20" d="M2355.956 1634.825s2.118 1.933 1.7 3.306-2.324 2.289-2.582 3.967-1.291 2.594-2.221 2.594h-4.432s-.684-1.181.968-1.537 2.276-2.328 2.173-4.159a32.3 32.3 0 0 1 .155-4.272l3.512-.814z" transform="translate(-2317.529 -1573.576)"/>
                        <path id="패스_2418" data-name="패스 2418" class="cls-20" d="M2150.965 1664.338s.38 4.4-.55 4.856l-11.9-.025s0-1.373 1.911-1.678 5.268-1.424 5.836-3.916 4.703.763 4.703.763z" transform="translate(-2138.517 -1598.09)"/>
                        <path id="패스_2419" data-name="패스 2419" class="cls-21" d="M2154.9 1244.29s.628 7.71 1.365 16.977c1 12.589 2.208 28.052 2.327 30.981.206 5.087 1.034 13.224 1.034 13.224s1.962 1.933 5.888 1.118a131.316 131.316 0 0 0 4.5-23.905l.046-.607c.93-12.511 2.375-38.856 2.375-38.856z" transform="translate(-2152.5 -1240.171)"/>
                        <path id="패스_2420" data-name="패스 2420" class="cls-4" d="M2154.9 1244.29s.628 7.71 1.365 16.977l13.747 21.418.046-.607c.93-12.511 2.375-38.856 2.375-38.856z" transform="translate(-2152.5 -1240.171)"/>
                        <path id="패스_2421" data-name="패스 2421" class="cls-21" d="M2174.449 1227.445s11.312 27.921 18.749 41.042 9.762 16.783 9.762 16.783 4.261-1.678 4.648-2.823c0 0-2.844-25.331-7.825-31.506-2.815-3.489-6.121-13.96-6.276-17.622s-1.007-10.909-1.007-10.909z" transform="translate(-2169.181 -1222.41)"/>
                    </g>
                    <path id="패스_2422" data-name="패스 2422" class="cls-16" d="M2205.727 909.3s-7.654 3.693-12.066 2.323a10.413 10.413 0 0 1 2.987-2.39 35.959 35.959 0 0 1-.339-2.306 21.291 21.291 0 0 1-.187-2.356l2.953-2.322 2.8-2.223a11.282 11.282 0 0 0 3.852 9.274z" transform="translate(-2149.733 -889.853)"/>
                    <path id="패스_2423" data-name="패스 2423" class="cls-17" d="M2150.716 995.928a.69.69 0 0 0 .46.183c1.662-.034 6.5.885 10.587.467a31.286 31.286 0 0 0 9.792-2.772c.441-.2 1.444-.736 1.426-1.2a69.695 69.695 0 0 0-.135-2.257c-.137-1.909-.33-4.619-.392-7.833a98.123 98.123 0 0 1 .153-7.857 64.118 64.118 0 0 0 .101-3.659 53.566 53.566 0 0 0-.694-9.19c-.833-4.846-2.394-8.639-4.7-10.327-.306-.235-2.208.684-3.971 1.537a7.34 7.34 0 0 1-4.751.569l-1.527 1.336a15.084 15.084 0 0 0-4.787 7.519c-.746 2.975-1.187 8.354-1.426 13.936a246.18 246.18 0 0 0-.237 7.5v.083c-.018.251-.018.5-.018.754-.084 6.197.003 11.127.119 11.211z" transform="translate(-2112.953 -933.727)"/>
                    <path id="패스_2424" data-name="패스 2424" d="M2216.247 915.355a10.143 10.143 0 0 1-5.617 4.511 21.29 21.29 0 0 1-.187-2.356l2.953-2.323z" transform="translate(-2164.054 -902.789)" style="fill:#ed985f"/>
                    <path id="패스_2425" data-name="패스 2425" class="cls-16" d="M2192.969 861.109s7.3 1.194 7.987-3.294 2.089-7.357-2.543-8.31-5.8.626-6.4 2.07-.925 9.107.956 9.534z" transform="translate(-2147.926 -846.489)"/>
                    <path id="패스_2426" data-name="패스 2426" d="M2189.876 833.1c.066-.076.219-.137.56-.156a1.384 1.384 0 0 0-.636-.179 1.712 1.712 0 0 0-1.137-1.514 1.02 1.02 0 0 1 .495.736c-.943-.969-2.964-1.673-8.559-1.232-7.375.582-4.944 5.3-3.989 5.866s3.357-.98 5.136-.839 2.117 2.711 2.721 3.064.366-.271 1.183-.64.894.984.658 1.863.886 2.04.886 2.04l1.134-1.221c1.134-1.221 2.2-6.392 1.687-7.494z" transform="translate(-2134.193 -830.618)"/>
                    <path id="패스_2427" data-name="패스 2427" class="cls-16" d="M2009.716 985.043s.251-.992-.437-1.438-1.322-1.659-1.612-1.495c-.6.34.329 1.4.159 2.719-.059.462 1.017 1.671 1.89.214z" transform="translate(-1990.834 -959.885)"/>
                    <path id="패스_2428" data-name="패스 2428" class="cls-23" d="M2273.841 1075.951a97.683 97.683 0 0 1 .154-7.857c.01-.189.02-.38.028-.571-.694-3.438-1.744-6.489-3.289-6.588-.001 0-4.605 7.235 3.107 15.016z" transform="translate(-2214.341 -1027.166)"/>
                    <path id="패스_2429" data-name="패스 2429" class="cls-16" d="M2314.044 1243.988a23.2 23.2 0 0 1-.8 4.436 15.892 15.892 0 0 1-2.977 3.4c-.764.443.466-2.971.311-3.635s-.629 1.212-.965 1.256-.25-1.645-.262-2.26 1.638-2.132 2.219-3.44 2.474.243 2.474.243z" transform="translate(-2248.454 -1182.727)"/>
                    <path id="패스_2430" data-name="패스 2430" d="M2244.43 951.442s4.62 2.187 6.835 5.55c3.436 5.217 7.418 24.228 7.492 25.988s-2.907 14.189-2.907 14.189-3.022-.2-3.8-1.725c0 0 .6-12.77.221-13.591s-12.6-17.13-11.227-20.61 3.386-9.801 3.386-9.801z" transform="translate(-2190.074 -933.727)" style="fill:url(#linear-gradient-6)"/>
                    <path id="패스_2431" data-name="패스 2431" class="cls-18" d="m1896.44 992.732.243 2.181-2.632-.591z" transform="translate(-1894.051 -968.963)"/>
                </g>
            </g>
            <g id="그룹_2122" data-name="그룹 2122" transform="translate(68.11 122.712)">
                <g id="그룹_2118" data-name="그룹 2118" transform="translate(73.105 44.601)">
                    <path id="사각형_5605" data-name="사각형 5605" class="cls-25" d="M0 0h50.696v37.188H0z"/>
                    <path id="사각형_5606" data-name="사각형 5606" class="cls-26" transform="translate(37.191 8.419)" d="M0 0h13.507v.555H0z"/>
                    <path id="사각형_5607" data-name="사각형 5607" class="cls-26" transform="translate(27.199 28.774)" d="M0 0h23.499v.555H0z"/>
                    <path id="패스_2262" data-name="패스 2262" class="cls-26" d="M1946.021 1421.642a42.659 42.659 0 0 1-1.954 12.762 15.22 15.22 0 0 1-14.521 10.67h-8.8v-36.905h23.092a42.729 42.729 0 0 1 2.183 13.473z" transform="translate(-1920.748 -1408.167)"/>
                </g>
                <g id="그룹_2119" data-name="그룹 2119" transform="translate(0 63.775)">
                    <path id="사각형_5608" data-name="사각형 5608" class="cls-25" d="M4.5 0h37.831a4.5 4.5 0 0 1 4.5 4.5 4.5 4.5 0 0 1-4.5 4.5H4.5A4.5 4.5 0 0 1 0 4.5 4.5 4.5 0 0 1 4.5 0z" transform="translate(5.179 9.01)"/>
                    <path id="패스_2263" data-name="패스 2263" class="cls-25" d="M1270.85 1593.411v3.969a2.522 2.522 0 0 1-2.52 2.52h-41.793a2.519 2.519 0 0 1-2.52-2.52v-3.969a2.522 2.522 0 0 1 2.52-2.52h41.793a2.525 2.525 0 0 1 2.52 2.52z" transform="translate(-1224.017 -1590.891)"/>
                    <path id="패스_2264" data-name="패스 2264" class="cls-26" d="M1397.771 1602.421v3.963a2.518 2.518 0 0 1-2.52 2.521h-29.969a22.877 22.877 0 0 1-4.1-9 44.371 44.371 0 0 1-1.155-9.01h30.042a2.525 2.525 0 0 1 2.52 2.52v3.969a2.522 2.522 0 0 1-2.52 2.52h5.179a2.518 2.518 0 0 1 2.523 2.517z" transform="translate(-1345.759 -1590.891)"/>
                </g>
                <g id="그룹_2121" data-name="그룹 2121" transform="translate(18.435)">
                    <path id="패스_2265" data-name="패스 2265" class="cls-17" d="m1630.4 984.543-3.375 10.364-.25.766-1.565 4.813-.011.033-5.046-.111-19.361-.439-1.416-4.052-.238-.677-3.747-10.7c11.628 4.028 21.209-4.771 35.009.003z" transform="translate(-1574.862 -983.082)"/>
                    <path id="패스_2266" data-name="패스 2266" class="cls-23" d="m1660.778 1103.064-1.565 4.813-5.057-.078-19.361-.439-1.416-4.052c6.656-.116 18.107-.272 27.399-.244z" transform="translate(-1608.861 -1090.472)"/>
                    <path id="패스_2267" data-name="패스 2267" class="cls-17" d="M1473.257 1200.64a15.215 15.215 0 0 1-14.521 10.67h-43.852a14.1 14.1 0 0 1-13.589-10.353 44.236 44.236 0 0 1-1.577-10.692c-.005-.344-.011-.688-.011-1.032q0-.61.017-1.219a43.87 43.87 0 0 1 16.825-33.02l10.49-8.306 24.008.555 13.2 12.628a29.1 29.1 0 0 1 4.837 5.962 42.721 42.721 0 0 1 4.175 34.808z" transform="translate(-1399.708 -1129.52)"/>
                    <g id="그룹_2120" data-name="그룹 2120" transform="translate(26.194 30.321)">
                        <path id="패스_2268" data-name="패스 2268" class="cls-9" d="M1657.653 1311.926v-4.639a19.685 19.685 0 0 1-8.307-2.1l1.468-5.718a17.273 17.273 0 0 0 8.112 2.149c2.785 0 4.691-1.074 4.691-3.028 0-1.858-1.564-3.032-5.18-4.253-5.228-1.759-8.8-4.2-8.8-8.941 0-4.3 3.032-7.671 8.26-8.7v-4.643h4.786v4.3a17.635 17.635 0 0 1 7.086 1.611l-1.417 5.523a16.191 16.191 0 0 0-7.038-1.663c-3.175 0-4.2 1.369-4.2 2.737 0 1.611 1.711 2.638 5.865 4.2 5.813 2.053 8.16 4.739 8.16 9.139 0 4.349-3.08 8.061-8.7 9.04v4.982z" transform="translate(-1649.346 -1272.054)"/>
                    </g>
                    <rect id="사각형_5609" data-name="사각형 5609" class="cls-6" width="39.068" height="6.195" rx="3.097" transform="translate(18.798 15.453)"/>
                    <path id="패스_2269" data-name="패스 2269" d="M1473.351 1434.717a15.215 15.215 0 0 1-14.521 10.67h-43.852a14.1 14.1 0 0 1-13.589-10.353 44.236 44.236 0 0 1-1.576-10.692c7.255 6.917 15.8 15.96 35.787 16.237 24.815.345 35.509-11.286 37.43-32.375a42.668 42.668 0 0 1 .321 26.513z" transform="translate(-1399.802 -1363.597)" style="opacity:.6;fill:#b4bede"/>
                </g>
            </g>
        </g>
    </g>
</svg>
