<svg xmlns="http://www.w3.org/2000/svg" width="370" height="244">
    <defs>
        <linearGradient id="linear-gradient" x1=".5" x2=".5" y2="1" gradientUnits="objectBoundingBox">
            <stop offset="0" stop-color="#fff"/>
            <stop offset="1" stop-color="#fff" stop-opacity="0"/>
        </linearGradient>
        <linearGradient id="linear-gradient-2" x1=".5" x2=".5" y2="1" gradientUnits="objectBoundingBox">
            <stop offset="0" stop-color="#5244a3"/>
            <stop offset="1" stop-color="#13297d"/>
        </linearGradient>
        <linearGradient id="linear-gradient-3" x1=".5" x2=".5" y2="1" gradientUnits="objectBoundingBox">
            <stop offset="0" stop-color="#f9fafe"/>
            <stop offset="1" stop-color="#d0d3f4"/>
        </linearGradient>
        <style>
            .cls-3,.cls-6{fill:#fff}.cls-3{opacity:.16}.cls-5{fill:#7c8cd8}.cls-7{fill:#ffd5b8}.cls-8{fill:#1d232b}.cls-9{fill:#020d41}.cls-10{fill:url(#linear-gradient-2)}.cls-12{fill:url(#linear-gradient-3)}.cls-14{fill:#ffb27d}.cls-15{fill:#233862}.cls-16{fill:#c8d5fc}.cls-17{fill:#ebedf5}.cls-19{fill:#b4bede}.cls-23{fill:#b6c5e3}.cls-24{fill:#ffcba7}.cls-26{fill:#f9ddbf}.cls-28{fill:#1f4a91}.cls-29{fill:#95b3ef}
        </style>
    </defs>
    <g id="img_main_02" transform="translate(-470 -3682.816)">
        <g id="그룹_2182" data-name="그룹 2182" transform="translate(480 3682.816)">
            <path id="패스_1892" data-name="패스 1892" d="M207.191 355.888s-41.332-43.615-15.01-94.9 61.642-25.479 59.953-85.185 81.272-64.807 107.672-47.486 28.728 28.477 83.243 21.6 79.867 43.939 61.952 79.2c-20.926 41.186 42.109 45.176-5.788 126.879z" transform="translate(-183.413 -119.625)" style="fill:url(#linear-gradient);opacity:.2"/>
            <ellipse id="_Path_" data-name="&lt;Path&gt;" class="cls-3" cx="111.179" cy="7.635" rx="111.179" ry="7.635" transform="translate(68.285 210.037)"/>
            <ellipse id="_Path_2" data-name="&lt;Path&gt;" class="cls-3" cx="45.575" cy="7.635" rx="45.575" ry="7.635" transform="translate(210.735 228.73)"/>
            <ellipse id="_Path_3" data-name="&lt;Path&gt;" class="cls-3" cx="21.492" cy="4.72" rx="21.492" ry="4.72" transform="translate(35.736 231.923)"/>
            <path id="패스_1899" data-name="패스 1899" d="M969.242 644.268v133.8a4.028 4.028 0 0 1-3.774 4.24H772.419a4.028 4.028 0 0 1-3.773-4.24v-133.8a4.026 4.026 0 0 1 3.773-4.24h193.05a4.027 4.027 0 0 1 3.773 4.24z" transform="translate(-687.419 -567.898)" style="fill:#464f7b;stroke:rgba(255,255,255,.6)"/>
            <g id="그룹_2020" data-name="그룹 2020" transform="translate(81.227 72.198)">
                <path id="패스_1900" data-name="패스 1900" class="cls-5" d="M969.242 643.8v10.1h-200.6v-10.1a3.773 3.773 0 0 1 3.773-3.773h193.054a3.773 3.773 0 0 1 3.773 3.773z" transform="translate(-768.646 -640.029)"/>
                <g id="그룹_2019" data-name="그룹 2019" transform="translate(6.136 5.181)">
                    <path id="패스_1901" data-name="패스 1901" class="cls-6" d="M812.857 679.118a1.757 1.757 0 1 1 1.757 1.757 1.757 1.757 0 0 1-1.757-1.757z" transform="translate(-812.857 -677.361)"/>
                    <path id="패스_1902" data-name="패스 1902" class="cls-6" d="M862.731 679.118a1.757 1.757 0 1 1 1.757 1.757 1.757 1.757 0 0 1-1.757-1.757z" transform="translate(-855.809 -677.361)"/>
                    <path id="패스_1903" data-name="패스 1903" class="cls-6" d="M913.864 679.118a1.757 1.757 0 1 1 1.757 1.757 1.757 1.757 0 0 1-1.757-1.757z" transform="translate(-899.845 -677.361)"/>
                </g>
            </g>
            <g id="그룹_2026" data-name="그룹 2026" transform="translate(115.287 18.97)">
                <g id="그룹_2024" data-name="그룹 2024">
                    <path id="패스_1911" data-name="패스 1911" class="cls-7" d="M1190.718 744.241a.956.956 0 0 0-.171 1.022.008.008 0 0 0 0 .005 6.35 6.35 0 0 0 2.006 2.2c.121.1.228.186.322.268l.073.065.056.05c.882.814.55 1 2.134 2.651 1.807 1.881 3.051 1.915 3.405 1.744.3-.146-.309-1.143-.983-2.265-.033-.054-.065-.109-.1-.163-.09-.149-.179-.3-.268-.45-.789-1.349-.587-1.982-.4-3.99.152-1.632 2.541-9.114 2.541-9.114l-3.463-.6s-1.045 5.958-2.194 6.876c-.615.489-1.3.495-1.894.857l-.123.077a4.554 4.554 0 0 0-.941.767z" transform="translate(-1165.984 -669.136)"/>
                    <path id="패스_1912" data-name="패스 1912" class="cls-8" d="M1190.718 792.705a.956.956 0 0 0-.171 1.022.008.008 0 0 0 0 .005 7.35 7.35 0 0 0 2.01 2.2c.12.1.225.19.319.276l.073.065.056.05c.882.813.55 1 2.134 2.651 1.807 1.881 3.051 1.915 3.405 1.744.3-.146-.309-1.143-.983-2.265a7.7 7.7 0 0 1-3.221-2.375c-1.048-1.338-1.76-3.044-2.473-4.092l-.2-.038a4.554 4.554 0 0 0-.949.757z" transform="translate(-1165.984 -717.6)"/>
                    <path id="패스_1913" data-name="패스 1913" class="cls-7" d="M1376.292 735.6c.213 1.069 1.737.891 3.44.476s1.3.079 3.721-.188 3.157-1.171 3.231-1.531c.066-.32-1.131-.433-2.415-.581a42.762 42.762 0 0 1-.486-.058c-1.45-.182-2.511-1.118-3.828-1.887-1.247-.728-3.108-3.694-3.108-3.694l-3.323.262s1.743 2.649 2.417 3.8a4.014 4.014 0 0 1 .325 2.265 4.259 4.259 0 0 0 .026 1.136z" transform="translate(-1323.63 -662.645)"/>
                    <path id="패스_1914" data-name="패스 1914" class="cls-8" d="M1396.589 771.067c1.7-.415 1.3.079 3.721-.188s3.157-1.171 3.231-1.531c.066-.32-1.131-.433-2.415-.581l-.012.025a6.832 6.832 0 0 1-3.471 1.077c-1.644.039-3.385-.432-4.521-.414a4.259 4.259 0 0 0 .025 1.137c.216 1.069 1.739.891 3.442.475z" transform="translate(-1340.488 -697.64)"/>
                    <path id="패스_1915" data-name="패스 1915" class="cls-9" d="m1230.987 595.727-3.109 8.358-4.06 10.915a6.575 6.575 0 0 1-2.155-.2 9.338 9.338 0 0 1-2.083-1.015s1.13-11.719 3.233-18.445a11.988 11.988 0 0 1 1.809-3.909c3.258-3.848 6.365 4.296 6.365 4.296z" transform="translate(-1191.052 -544.028)"/>
                    <path id="패스_1916" data-name="패스 1916" class="cls-10" d="M1092.579 522.717c-1.768-.571-6.382-.011-11.387.893a3.394 3.394 0 0 1-3.5-1.584l-12.594-.988s-4.159 9.215-1.886 15.088a2.21 2.21 0 0 0 2.2 1.421s7.61.013 10.044.014c6.264 0 13.257-4.3 14.162-4.482 1.481-.3 2.072 2.666 3.551 5.775s13.912 13.774 13.912 13.774a10.942 10.942 0 0 0 2.7-.276 2.661 2.661 0 0 0 1.16-.732s-13.773-27.42-18.362-28.903z" transform="translate(-1055.799 -484.294)"/>
                    <path id="패스_1917" data-name="패스 1917" d="M1034.922 257.05a4.467 4.467 0 0 0-2.406-.627 6.692 6.692 0 0 1-1.161-.071c-4.807-.706-7.7 6.275-7.874 8.384-.313 3.873-2.362 4.463-5.247 6.888-5.784 4.862-4.091 10.514-.929 12.615 1.9 1.261 5.241 0 5.241 0 .047.033 9.147-5.083 13.633-7.551 6.721-.952 1.443-18.029-1.257-19.638z" transform="translate(-1014.358 -256.302)"/>
                    <path id="패스_1918" data-name="패스 1918" class="cls-7" d="M1106.113 344.272a5.93 5.93 0 0 1-3.7.112c-1.4-.619-2.461-2.924-2.44-2.925.637-.029 1.337-.586 1.877-4.24l.271.1 4.561 1.643s-.331 1.464-.545 2.857c-.176 1.167-.273 2.288-.024 2.453z" transform="translate(-1088.05 -325.988)"/>
                    <path id="패스_1919" data-name="패스 1919" d="M1120.017 339.564s-.182.79-.448 2.265a5.151 5.151 0 0 1-4.112-3.908z" transform="translate(-1101.381 -326.593)" style="fill:#ed975d"/>
                    <path id="패스_1920" data-name="패스 1920" class="cls-7" d="M1117.863 292.107s-6.24-.84-5.658-4.718.17-6.6 4.179-6.226 4.559 1.968 4.68 3.31-1.564 7.752-3.201 7.634z" transform="translate(-1098.548 -277.683)"/>
                    <path id="패스_1921" data-name="패스 1921" d="M1109.73 280.221s-4 3.441-6.714 3.718-3.746-.6-3.746-.6a10.609 10.609 0 0 0 2.567-3.475 1.912 1.912 0 0 1 1.576-1.126c1.941-.163 5.619-.238 6.317 1.483z" transform="translate(-1087.442 -275.557)"/>
                    <path id="패스_1922" data-name="패스 1922" d="M1156.64 283.047a9.841 9.841 0 0 1 1.757 2.251 7.558 7.558 0 0 1 .2 4.016s2.084-4.048.905-6.016c-1.246-2.086-2.862-.251-2.862-.251z" transform="translate(-1136.848 -278.693)"/>
                    <path id="패스_1923" data-name="패스 1923" class="cls-12" d="M1078.11 378.868c-.193 12.633-.055 9.993-1.437 11.191a5.3 5.3 0 0 1-2.5.541c-3.874.256-10.683-.385-10.942-1.1-.892-2.477-.262-3.247-1.006-7.039-.078-.4-.173-.84-.286-1.315-.62-2.6-1.225-3.491.981-7.675 2-3.79 4.079-6.865 4.266-6.754 5.275 3.134 5.7.5 5.7.5s5.314 5.489 5.224 11.651z" transform="translate(-1054.796 -351.389)"/>
                    <path id="패스_1924" data-name="패스 1924" class="cls-10" d="m1227.877 634.748-4.059 10.913a6.574 6.574 0 0 1-2.155-.2 9.344 9.344 0 0 1-2.083-1.015s1.13-11.719 3.233-18.445z" transform="translate(-1191.052 -574.69)"/>
                    <path id="패스_1925" data-name="패스 1925" class="cls-12" d="M1144.388 370.341s5.428.922 6.065 3.26 2.73 16.525 2.73 16.525-1.531 1.494-2.806.219-4.008-13.275-4.008-13.275z" transform="translate(-1126.297 -354.513)"/>
                    <path id="패스_1926" data-name="패스 1926" d="M1079.512 455.67c-3.874.256-10.683-.385-10.942-1.1-.893-2.477-.262-3.247-1.006-7.039l1.87-5.26s-.311 5.858 1.416 7.4 7.073 2.977 7.912 4.265a4.715 4.715 0 0 1 .75 1.734z" transform="translate(-1060.136 -416.459)" style="fill:#7187b4"/>
                    <path id="패스_1927" data-name="패스 1927" class="cls-14" d="M1121.673 517.39s3.822-.85 4.438-.51a8.975 8.975 0 0 1 2.312 2c.189.43-1.373-.327-1.88-.463a4.525 4.525 0 0 0-1.624.355 5.4 5.4 0 0 1-2.909.291z" transform="translate(-1106.734 -480.644)"/>
                    <path id="패스_1928" data-name="패스 1928" class="cls-12" d="M1026.43 366.713s-5.131.315-6.909 2.791c-2.5 3.487-7.467 18.348-4.625 20.332 3.2 2.234 14.571.589 14.571.589a4.616 4.616 0 0 0-.147-2.624c-.526-.856-9.08-2.24-9.475-2.635s4.938-7.7 4.938-8.882 1.647-9.571 1.647-9.571z" transform="translate(-1014.043 -351.389)"/>
                    <path id="패스_1929" data-name="패스 1929" class="cls-14" d="M1154.981 525.04a7.386 7.386 0 0 0 1.063 1.157.783.783 0 0 0 .432.093l-.539-.971z" transform="translate(-1135.42 -487.741)"/>
                    <path id="패스_1930" data-name="패스 1930" class="cls-14" d="m1153.651 517.376 2.328 1.131a.415.415 0 0 1-.386.149 5.566 5.566 0 0 1-1.01-.278z" transform="translate(-1134.274 -481.14)"/>
                </g>
                <g id="그룹_2025" data-name="그룹 2025" transform="translate(14.938 25.657)">
                    <path id="패스_1931" data-name="패스 1931" class="cls-15" d="m1145.984 536.521-24.318-.008v.537l24.1.008z" transform="translate(-1121.667 -523.278)"/>
                    <path id="패스_1932" data-name="패스 1932" d="m1162.637 454.929 18.415.006 5.544-13.774-18.387-.006z" transform="translate(-1156.95 -441.155)"/>
                    <path id="패스_1933" data-name="패스 1933" class="cls-6" d="M1250.74 485.36a.638.638 0 0 0-.625-.877 1.256 1.256 0 0 0-1.129.876.638.638 0 0 0 .625.877 1.257 1.257 0 0 0 1.129-.876z" transform="translate(-1231.285 -478.469)"/>
                </g>
            </g>
            <g id="그룹_2172" data-name="그룹 2172" transform="translate(102.595 118.166)">
                <path id="사각형_5546" data-name="사각형 5546" class="cls-5" d="M1.517 0H34.24a1.517 1.517 0 0 1 1.517 1.517 1.517 1.517 0 0 1-1.517 1.517H1.517A1.517 1.517 0 0 1 0 1.517 1.517 1.517 0 0 1 1.517 0z"/>
                <g id="그룹_2028" data-name="그룹 2028" transform="translate(0 7.053)">
                    <path id="패스_1934" data-name="패스 1934" class="cls-16" d="M940.036 1190.764H923.63a1.035 1.035 0 0 1-1.035-1.035 1.035 1.035 0 0 1 1.035-1.035h16.406a1.035 1.035 0 0 1 1.035 1.035 1.035 1.035 0 0 1-1.035 1.035z" transform="translate(-922.595 -1184.352)"/>
                    <g id="그룹_2027" data-name="그룹 2027">
                        <path id="사각형_5547" data-name="사각형 5547" class="cls-16" d="M1.035 0h28.9a1.035 1.035 0 0 1 1.035 1.035 1.035 1.035 0 0 1-1.038 1.035H1.035A1.035 1.035 0 0 1 0 1.035 1.035 1.035 0 0 1 1.035 0z"/>
                        <rect id="사각형_5548" data-name="사각형 5548" class="cls-16" width="28.917" height="2.07" rx="1.035" transform="translate(33.789)"/>
                        <path id="패스_1935" data-name="패스 1935" class="cls-16" d="M1087.468 1190.764h-16.406a1.035 1.035 0 0 1-1.035-1.035 1.035 1.035 0 0 1 1.035-1.035h16.406a1.035 1.035 0 0 1 1.035 1.035 1.035 1.035 0 0 1-1.035 1.035z" transform="translate(-1049.564 -1184.352)"/>
                    </g>
                </g>
                <path id="사각형_5549" data-name="사각형 5549" class="cls-5" d="M1.517 0H34.24a1.517 1.517 0 0 1 1.517 1.517 1.517 1.517 0 0 1-1.517 1.517H1.517A1.517 1.517 0 0 1 0 1.517 1.517 1.517 0 0 1 1.517 0z" transform="translate(40.489)"/>
                <path id="사각형_5550" data-name="사각형 5550" class="cls-5" d="M1.517 0H34.24a1.517 1.517 0 0 1 1.517 1.517 1.517 1.517 0 0 1-1.517 1.517H1.517A1.517 1.517 0 0 1 0 1.517 1.517 1.517 0 0 1 1.517 0z" transform="translate(0 54.316)"/>
                <g id="그룹_2030" data-name="그룹 2030" transform="translate(0 61.369)">
                    <path id="패스_1936" data-name="패스 1936" class="cls-16" d="M940.036 1582.107H923.63a1.035 1.035 0 0 1-1.035-1.035 1.035 1.035 0 0 1 1.035-1.035h16.406a1.035 1.035 0 0 1 1.035 1.035 1.035 1.035 0 0 1-1.035 1.035z" transform="translate(-922.595 -1575.695)"/>
                    <g id="그룹_2029" data-name="그룹 2029">
                        <path id="사각형_5551" data-name="사각형 5551" class="cls-16" d="M1.035 0h28.9a1.035 1.035 0 0 1 1.035 1.035 1.035 1.035 0 0 1-1.038 1.035H1.035A1.035 1.035 0 0 1 0 1.035 1.035 1.035 0 0 1 1.035 0z"/>
                        <path id="사각형_5552" data-name="사각형 5552" class="cls-16" d="M1.035 0h26.846a1.035 1.035 0 0 1 1.035 1.035 1.035 1.035 0 0 1-1.035 1.035H1.035A1.035 1.035 0 0 1 0 1.035 1.035 1.035 0 0 1 1.035 0z" transform="translate(33.789)"/>
                        <path id="패스_1937" data-name="패스 1937" class="cls-16" d="M1087.468 1582.107h-16.406a1.035 1.035 0 0 1-1.035-1.035 1.035 1.035 0 0 1 1.035-1.035h16.406a1.035 1.035 0 0 1 1.035 1.035 1.035 1.035 0 0 1-1.035 1.035z" transform="translate(-1049.564 -1575.695)"/>
                    </g>
                </g>
                <path id="사각형_5553" data-name="사각형 5553" class="cls-5" d="M1.517 0H34.24a1.517 1.517 0 0 1 1.517 1.517 1.517 1.517 0 0 1-1.517 1.517H1.517A1.517 1.517 0 0 1 0 1.517 1.517 1.517 0 0 1 1.517 0z" transform="translate(40.489 54.316)"/>
                <rect id="사각형_5554" data-name="사각형 5554" class="cls-5" width="35.757" height="3.034" rx="1.517" transform="translate(0 27.158)"/>
                <g id="그룹_2032" data-name="그룹 2032" transform="translate(0 34.211)">
                    <path id="패스_1938" data-name="패스 1938" class="cls-16" d="M940.036 1386.435H923.63a1.035 1.035 0 0 1-1.035-1.035 1.035 1.035 0 0 1 1.035-1.035h16.406a1.035 1.035 0 0 1 1.035 1.035 1.035 1.035 0 0 1-1.035 1.035z" transform="translate(-922.595 -1380.023)"/>
                    <g id="그룹_2031" data-name="그룹 2031">
                        <path id="사각형_5555" data-name="사각형 5555" class="cls-16" d="M1.035 0h28.9a1.035 1.035 0 0 1 1.035 1.035 1.035 1.035 0 0 1-1.038 1.035H1.035A1.035 1.035 0 0 1 0 1.035 1.035 1.035 0 0 1 1.035 0z"/>
                        <rect id="사각형_5556" data-name="사각형 5556" class="cls-16" width="28.917" height="2.07" rx="1.035" transform="translate(33.789)"/>
                        <path id="패스_1939" data-name="패스 1939" class="cls-16" d="M1087.468 1386.435h-16.406a1.035 1.035 0 0 1-1.035-1.035 1.035 1.035 0 0 1 1.035-1.035h16.406a1.035 1.035 0 0 1 1.035 1.035 1.035 1.035 0 0 1-1.035 1.035z" transform="translate(-1049.564 -1380.023)"/>
                    </g>
                </g>
                <rect id="사각형_5557" data-name="사각형 5557" class="cls-5" width="35.757" height="3.034" rx="1.517" transform="translate(40.489 27.158)"/>
            </g>
            <g id="그룹_2036" data-name="그룹 2036" transform="translate(46.394 126.96)">
                <path id="패스_1940" data-name="패스 1940" class="cls-7" d="M790.093 1202.832s.375-.843.618-1.243 1.28-1.569 1.457-1.3.883 2.048.508 2.547.024 1.368-1.842 1.894z" transform="translate(-752.283 -1177.32)"/>
                <path id="패스_1941" data-name="패스 1941" class="cls-12" d="M640.662 1180.512s9.554 7.975 13.279 7.237a73.449 73.449 0 0 0 7.384-2.11l.894 2.287s-4.009 5.439-8.189 5.474a23.813 23.813 0 0 1-11.361-2.829z" transform="translate(-623.592 -1160.324)"/>
                <path id="패스_1942" data-name="패스 1942" class="cls-17" d="M519.942 1777.643s.277 4.474 1.143 4.538c.115.008 4.39.008 4.39.008l5.457-.032a1.771 1.771 0 0 0-1.631-1.593c-1.6-.278-4.265-1.4-5.231-3.507-1.017-2.217-4.128.586-4.128.586z" transform="translate(-519.627 -1673.338)"/>
                <path id="패스_1943" data-name="패스 1943" class="cls-10" d="M517.676 1446.091a11.377 11.377 0 0 0 2.954.555 10.847 10.847 0 0 0 2.758-.394 75.485 75.485 0 0 1 2.031-9.675c.9-3.488 2.188-7.973 4.019-13.546 5.062-15.4 6.6-24.413 6.742-25.266a.897.897 0 0 0 .01-.067l-.016-.008-15.562-6.833s1.924 21.228-.531 29.376a34.319 34.319 0 0 0-.891 3.9c-1.55 8.854-1.514 21.958-1.514 21.958z" transform="translate(-517.676 -1341.475)"/>
                <path id="패스_1944" data-name="패스 1944" class="cls-9" d="M540.246 1436.577c.9-3.488 2.188-7.973 4.019-13.546 5.062-15.4 6.6-24.413 6.742-25.266 0-.026 0-.049-.006-.075l-15.562-6.833s1.923 21.228-.531 29.376c-.344 1.139 5.338 16.344 5.338 16.344z" transform="translate(-532.503 -1341.475)"/>
                <path id="패스_1945" data-name="패스 1945" class="cls-17" d="M607.517 1777.643s.277 4.474 1.143 4.538c.115.008 4.39.008 4.39.008l5.457-.032a1.771 1.771 0 0 0-1.631-1.593c-1.6-.278-4.265-1.4-5.231-3.507-1.017-2.217-4.128.586-4.128.586z" transform="translate(-595.047 -1673.338)"/>
                <path id="패스_1946" data-name="패스 1946" class="cls-10" d="M568.42 1394.461a221.567 221.567 0 0 1-2.178 30.646c-2.38 16.89-1.573 24.059-1.573 24.059a16.207 16.207 0 0 1-2.3.584 10.408 10.408 0 0 1-3.405-.394s-3.407-16.9-2.43-25.35-4.66-29.006-4.66-29.006z" transform="translate(-547.128 -1344.579)"/>
                <path id="패스_1947" data-name="패스 1947" class="cls-7" d="m591.582 1120.337 3.038 1.992 2.767-.783a6.611 6.611 0 0 0 .647-3.317 20.639 20.639 0 0 0-.109-2.209l-4.1-1.809-1.529-.674c0 .024.119 1.256.135 1.436a10.463 10.463 0 0 1-.849 5.364z" transform="translate(-581.324 -1102.645)"/>
                <path id="패스_1948" data-name="패스 1948" class="cls-12" d="M552.587 1191.385c-3.781 3.65-18.091 3.037-18.973-.986s.962-34.24 7.421-36.138c1.34-.394 8.506 1.922 8.506 1.922a45.43 45.43 0 0 1 1.862 6.686c.143.729.561 8.451.873 15.675a578.9 578.9 0 0 1 .332 9.044 26.13 26.13 0 0 1-.021 3.797z" transform="translate(-531.224 -1137.678)"/>
                <path id="패스_1949" data-name="패스 1949" d="M599.2 1119.208c.831 1.406 3.749 2.636 5.294 3.2a20.6 20.6 0 0 0-.109-2.209l-4.1-1.809c-.907-.012-1.458.19-1.085.818z" transform="translate(-587.782 -1106.824)" style="fill:#fca56b"/>
                <path id="패스_1950" data-name="패스 1950" class="cls-7" d="M591.28 1062.189s-6.6 2.06-7.823-2.072-2.893-6.649 1.271-8.139 5.453-.156 6.2 1.124 2.039 8.445.352 9.087z" transform="translate(-573.133 -1049.064)"/>
                <path id="패스_1951" data-name="패스 1951" d="M572.838 1038.7s-.421 4.809-1.415 4.6-2.089-.655-1.944.794-.967 3.934-2.4 3.928c-3.075-.013-6.417-7.9-5.575-9.4 2.429-4.313 14.845-5.185 11.334.078z" transform="translate(-555.307 -1035.065)"/>
                <path id="패스_1952" data-name="패스 1952" class="cls-19" d="M595.105 1142.711c-.085-.036-4.916-2.2-5.481-2.016s-1.269 1.912-1.269 1.912l8.506 1.923a4.225 4.225 0 0 0-1.756-1.819z" transform="translate(-578.545 -1126.024)"/>
                <g id="그룹_2034" data-name="그룹 2034" transform="translate(17.022 3.045)">
                    <path id="패스_1953" data-name="패스 1953" class="cls-6" d="m669.932 1307.836-27.08 25.5c-.531.5-1.2.659-1.487.354l-.914-.971c-.287-.3-.088-.964.443-1.463l27.079-25.5c.531-.5 1.2-.659 1.487-.354l.914.971c.288.305.089.964-.442 1.463z" transform="translate(-640.319 -1270.793)"/>
                    <path id="패스_1954" data-name="패스 1954" d="m654.736 1414.079-11.883 11.188c-.531.5-1.2.659-1.487.354l-.914-.971c-.287-.305-.088-.964.443-1.464L652.777 1412z" transform="translate(-640.319 -1362.728)" style="fill:#79e2fd"/>
                    <path id="패스_1955" data-name="패스 1955" class="cls-6" d="M803.12 1084.423a21.225 21.225 0 1 0 35.18-21.33c-.108-.109-.22-.215-.333-.321a21.226 21.226 0 0 0-34.846 21.651zm6.067-19.589a19.55 19.55 0 1 1 .842 27.635 19.527 19.527 0 0 1-.843-27.636z" transform="translate(-779.731 -1057.005)"/>
                    <g id="그룹_2033" data-name="그룹 2033" transform="translate(24.143 1.676)" style="opacity:.5">
                        <path id="패스_1956" data-name="패스 1956" d="M848.055 1102.023a19.55 19.55 0 1 1-.843-27.633 19.468 19.468 0 0 1 .843 27.633z" transform="translate(-814.268 -1069.08)" style="opacity:.34;fill:#fff"/>
                    </g>
                </g>
                <path id="패스_1957" data-name="패스 1957" class="cls-19" d="M586.7 1240.653c-14.921-10.632-13.68-24.82-13.68-24.82 5.454 3.076 10.865 9.877 13.348 15.776.145 3.379.269 6.65.332 9.044z" transform="translate(-565.316 -1190.743)"/>
                <g id="그룹_2035" data-name="그룹 2035" transform="translate(7.392 18.506)">
                    <path id="패스_1958" data-name="패스 1958" class="cls-7" d="M766.759 1352.47a4.073 4.073 0 0 0 1.906-1.177s.449.031-.074.988c-.044.08-.141.286-.214.431a.093.093 0 0 0 .078.134 9.927 9.927 0 0 1 2.387.05c.161.034.208.42.2.585a1.494 1.494 0 0 1-.314 1.019 5.216 5.216 0 0 1-1.885.988 5.7 5.7 0 0 1-2.917-.367l-.955-.442.3-1.776.24.05c.378.08.85-.385 1.248-.483z" transform="translate(-738.041 -1325.908)"/>
                    <path id="패스_1959" data-name="패스 1959" class="cls-12" d="M575.876 1168.4s-13.407 2.553 3.944 21.967c2.775 3.105 17.768 7.148 17.768 7.148s1.521-1.294.754-2.341c0 0-10.323-7.5-12.594-8.688-1.022-.536-3.966-11.965-5.631-14.717a7.509 7.509 0 0 0-4.241-3.369z" transform="translate(-570.934 -1168.397)"/>
                </g>
                <path id="패스_1960" data-name="패스 1960" class="cls-7" d="M792.711 1200.3a6.833 6.833 0 0 0 .524-1.28 7.064 7.064 0 0 1 .865-1.959c.091-.091.391.026.427.417a2.267 2.267 0 0 1-.215.848 9.548 9.548 0 0 0-.284 1.685c-.207.674-1.317.289-1.317.289z" transform="translate(-754.538 -1174.55)"/>
            </g>
            <g id="그룹_2051" data-name="그룹 2051" transform="translate(214.611 157.489)">
                <g id="그룹_2050" data-name="그룹 2050">
                    <g id="그룹_2049" data-name="그룹 2049">
                        <g id="그룹_2045" data-name="그룹 2045" transform="translate(0 21.801)">
                            <path id="패스_1971" data-name="패스 1971" class="cls-12" d="M1891.853 1468.958h-67.689c-9.437-10.8-6.944-25.379 5.582-37.678 1.575-1.547 4.6-2.644 7.854-3.417a87.071 87.071 0 0 1 12.867-1.783 47.838 47.838 0 0 0 5.752-5.516c6.69-8.1 12.381-7.4 12.381-7.4 6.819-1.327 12.635-1.717 16.947.684 3.995 2.227 6.7 6.85 7.711 15.347q.288 2.409.392 5.246c.247 6.9 1.606 13.029 2.413 18.223 1.172 7.521 1.998 13.242-4.21 16.294z" transform="translate(-1818.442 -1412.101)"/>
                        </g>
                        <path id="패스_1972" data-name="패스 1972" class="cls-23" d="M1996.795 1422.506c-4.137 2.254-4.6 9.678-11.071 11.6s-17.469 1.743-23.7 8.507c-6.015 6.525-12.65-10.077-9.793-14.746a87.068 87.068 0 0 1 12.868-1.783 47.864 47.864 0 0 0 5.751-5.516c6.69-8.1 12.381-7.4 12.381-7.4 6.819-1.327 12.635-1.717 16.947.684 4.747 4.901.754 6.4-3.383 8.654z" transform="translate(-1933.069 -1390.3)"/>
                        <g id="그룹_2048" data-name="그룹 2048" transform="translate(7.789)">
                            <path id="패스_1973" data-name="패스 1973" class="cls-24" d="M1953.564 1702.625s1.192 3.161.945 4.335.165 3.449-.312 4.468-1.33 2.5-.506 2.873c.313.141 3.94-2.691 4.145-3.523s.36-3.288 1.052-4.623a1.98 1.98 0 0 0-.9-2.895c-1.007-.487-2.418-3.167-2.418-3.167z" transform="translate(-1942.411 -1638.32)"/>
                            <path id="패스_1974" data-name="패스 1974" d="M1950.453 1500.684s-19.8-1.222-22.356 1.4c-2.689 2.768 1.692 29.991 1.692 29.991s5.37.154 5.793-1.269c0 0-1.008-13.18-.17-15.46a12.676 12.676 0 0 0 .307-5.435s10.508 1.569 13.842.77.892-9.997.892-9.997z" transform="translate(-1919.914 -1466.343)" style="fill:#1e2858"/>
                            <path id="패스_1975" data-name="패스 1975" class="cls-26" d="M2052.642 1397.713c0 .016-2.919 6.812-4.343 7.536s-6.578 6.651-7.683 6.548 1.142 1.211 1.142 1.211 9.162-4.47 9.686-4.73 3.282-4.8 3.66-7.107-2.462-3.458-2.462-3.458z" transform="translate(-2017.306 -1377.909)"/>
                            <path id="패스_1976" data-name="패스 1976" class="cls-24" d="M1882.06 1751.939s-1.129 3.184-2.075 3.922-2.1 2.742-3.121 3.212-2.63 1.052-2.24 1.869c.148.31 4.746.486 5.441-.017s2.4-2.28 3.787-2.854a1.98 1.98 0 0 0 1.178-2.794c-.456-1.022.2-3.979.2-3.979z" transform="translate(-1874.563 -1682.417)"/>
                            <path id="패스_1977" data-name="패스 1977" d="M2141.129 1271.813c-.423-.489 10.3.716 11.729 6.2 0 0 8.238-6.493.682-11.965-2.616-1.894-2.879-3.916-3.259-5.766s-2.99-7.169-7.519-4.527a5.9 5.9 0 0 0-3.378 1.145c-2.977 2.575-6.226 18.974 1.745 14.913z" transform="translate(-2099.828 -1255.027)"/>
                            <path id="패스_1978" data-name="패스 1978" class="cls-10" d="M1953.937 1509.367s-21.532 2.2-23.423 4.4-9.319 30.781-9.319 30.781a4.624 4.624 0 0 0 4.194.079s5.693-9.7 8.213-12.742 3.46-12.442 3.876-12.538 13.91 1.878 18.556-1.69-2.097-8.29-2.097-8.29z" transform="translate(-1914.722 -1474.066)"/>
                            <path id="패스_1979" data-name="패스 1979" class="cls-12" d="M2105.7 1359.148a22.433 22.433 0 0 0-11.649-1.241 4.459 4.459 0 0 0-3.481 2.221c-1.344 2.215-1.973 3.4-1.973 3.4s.13 1.026 1.967 1.843c-.5 1.836.459 5.042-.423 6.288s-6.354 4.332-6.623 6.048c-.5 3.153 9.354 8.866 12.291 8.254 8.445-1.755 14.177-24.4 9.891-26.813z" transform="translate(-2054.496 -1343.39)"/>
                            <path id="패스_1980" data-name="패스 1980" d="M2176.041 1271.294a11.974 11.974 0 0 0 1.145-3.627c.1-1.167-.891-5.366-5.108-4.349a5.833 5.833 0 0 0-2.323 1.138c-.869.715-2.081 2.195-.232 5.766l.508 1.217z" transform="translate(-2127.751 -1262.032)"/>
                            <g id="그룹_2046" data-name="그룹 2046" transform="translate(38.449 2.924)">
                                <path id="패스_1981" data-name="패스 1981" class="cls-7" d="M2179.661 1332.7c-.427.45-.259 1.945 1.738 1.833 1.31-.074 4.118-1.695 3.854-2.814a13.879 13.879 0 0 1-1.37-5.062l-.238.067-4 1.125s.194 1.271.291 2.476a5.156 5.156 0 0 1-.275 2.375z" transform="translate(-2175.6 -1319.635)"/>
                                <path id="패스_1982" data-name="패스 1982" d="M2180.736 1328.259s.193 1.271.292 2.476c2.268-.244 3.306-2.413 3.708-3.6z" transform="translate(-2176.69 -1320.049)" style="fill:#f4a269"/>
                                <path id="패스_1983" data-name="패스 1983" class="cls-7" d="M2158.626 1289.071s5.233-1.318 4.362-4.565-.782-5.6-4.161-4.9-3.692 2.117-3.665 3.271 2.08 6.453 3.464 6.194z" transform="translate(-2154.665 -1279.012)"/>
                                <path id="패스_1984" data-name="패스 1984" d="M2164.326 1277.25s1.758 3.348 5.073 3.707a2.9 2.9 0 0 1 2.473 1.488 30.419 30.419 0 0 0-1.56-5.889s-5.399-1.408-5.986.694z" transform="translate(-2162.558 -1276.095)"/>
                                <path id="패스_1985" data-name="패스 1985" d="M2153.954 1284.217a9.1 9.1 0 0 0-1.5 1.995c-.524 1.222.5 3.794.92 4.348 0 0-2.437-4.131-1.624-5.921a1.23 1.23 0 0 1 2.204-.422z" transform="translate(-2151.586 -1282.619)"/>
                            </g>
                            <path id="패스_1986" data-name="패스 1986" class="cls-26" d="M2010.8 1499.752s-1.042 1.1-1.169 1.163a7.214 7.214 0 0 1-1.98.241c-.421.106-.348-.156-.038-.369s1.074-.13.762-.207a8.481 8.481 0 0 0-2.631-.221 2.362 2.362 0 0 1-1.859-.149 8.252 8.252 0 0 1 2.965-1.216c.673.038 2.608-.055 2.608-.055z" transform="translate(-1985.932 -1465.085)"/>
                            <path id="패스_1987" data-name="패스 1987" class="cls-7" d="M2196.66 1383.223s6.495 14.66 4.691 16.812c-1.791 2.137-14.288-.459-14.288-.459l.385-1.361s9.19-.563 9.845-.748c.941-.266-4.656-10.548-4.656-10.548z" transform="translate(-2143.69 -1365.43)"/>
                            <path id="패스_1988" data-name="패스 1988" class="cls-12" d="M2214.12 1366.823c.156 0 2.1.64 3.491 3.4 1.369 2.709 1.868 4.025 1.868 4.025s-6.07 4.708-8.486 2.975.9-10.457 3.127-10.4z" transform="translate(-2163.572 -1351.307)"/>
                            <path id="패스_1989" data-name="패스 1989" class="cls-26" d="M2170.69 1481.07s-1.043-.677-1.466-1.047-2.866-.671-2.865-.424 1.424.583 1.58.83 1.025 1.265 1.767 1.263a1.057 1.057 0 0 0 .984-.622z" transform="translate(-2125.859 -1448.353)"/>
                            <g id="그룹_2047" data-name="그룹 2047" transform="translate(36.079 27.617)">
                                <path id="패스_1990" data-name="패스 1990" class="cls-28" d="m2144.025 1461.824-2.8-.4a1.224 1.224 0 0 1-.948-.781l-1.546-5.469c-.105-.372.149-.625.567-.565l2.8.4a1.224 1.224 0 0 1 .948.781l1.546 5.468c.108.372-.149.625-.567.566z" transform="translate(-2138.123 -1454.52)"/>
                                <path id="패스_1991" data-name="패스 1991" class="cls-15" d="m2139.826 1461.228-2.8-.4a1.224 1.224 0 0 1-.948-.781l-1.546-5.468c-.105-.372.149-.625.567-.566l2.8.4a1.224 1.224 0 0 1 .948.781l1.547 5.468c.106.372-.15.625-.568.566z" transform="translate(-2134.507 -1454.006)"/>
                                <path id="패스_1992" data-name="패스 1992" class="cls-28" d="M2138.061 1457.617c-.044-.155.062-.26.235-.235a.508.508 0 0 1 .394.325c.043.154-.062.259-.236.235a.508.508 0 0 1-.393-.325z" transform="translate(-2137.56 -1456.91)"/>
                            </g>
                            <path id="패스_1993" data-name="패스 1993" class="cls-26" d="M2163.548 1487.681a19.242 19.242 0 0 1-2.37-.086c-.476-.113-1.689-1.619-1.366-2 .2-.238 1.336.188 1.876.187s1.941-.781 2.9.815c.112.184-1.04 1.084-1.04 1.084z" transform="translate(-2120.175 -1453.535)"/>
                        </g>
                        <path id="패스_1994" data-name="패스 1994" class="cls-12" d="M2057.373 1527.022s-2.04 1.911-10.576 2.186-19.663 9.708-19.767 12.37 17.187 6.709 17.455 6.328 10.964-9.57 10.964-9.57z" transform="translate(-1998.079 -1489.271)"/>
                        <path id="패스_1995" data-name="패스 1995" class="cls-23" d="M2160.733 1558.707c-9.5-11.854-29 4.306-34.052 3.85-4.641-.419 9.051-16.621 26.031-19.032 6.864-.974 5.22-8.068 5.217-8.287.192 1.607.323 3.352.392 5.246.245 6.896 1.605 13.029 2.412 18.223z" transform="translate(-2083.111 -1496.347)"/>
                    </g>
                </g>
            </g>
            <g id="그룹_2052" data-name="그룹 2052" transform="translate(183.918 46.756)">
                <path id="패스_1996" data-name="패스 1996" class="cls-29" d="m1592.861 495 18.493 3.826-11.854-9.216-.8 2.666-4.589.539z" transform="translate(-1581.156 -485.034)"/>
                <path id="패스_1997" data-name="패스 1997" class="cls-26" d="m1538.723 489.658-15.028-8.974-15.171-1.715z" transform="translate(-1508.525 -475.869)"/>
                <path id="패스_1998" data-name="패스 1998" class="cls-26" d="m1640.682 461.217 11.856 9.212-8.762-13.788z" transform="translate(-1622.339 -456.641)"/>
            </g>
            <g id="그룹_2053" data-name="그룹 2053" transform="translate(60.925 98.778)">
                <path id="패스_1999" data-name="패스 1999" class="cls-29" d="m640.86 869.968-18.493 3.826 11.856-9.212.8 2.666 4.589.539z" transform="translate(-622.368 -860.006)"/>
                <path id="패스_2000" data-name="패스 2000" class="cls-26" d="m622.368 864.629 15.028-8.974 15.17-1.715z" transform="translate(-622.368 -850.841)"/>
                <path id="패스_2001" data-name="패스 2001" class="cls-26" d="m634.223 836.188-11.855 9.212 8.763-13.788z" transform="translate(-622.368 -831.612)"/>
            </g>
            <g id="그룹_2171" data-name="그룹 2171" transform="translate(204.284 124.638)">
                <path id="Donut_0" d="M0 44.5a22.929 22.929 0 0 0 22.638-8.209 22.258 22.258 0 0 0 2.48-23.687A22.8 22.8 0 0 0 4.659 0" transform="translate(17.864)" style="stroke-miterlimit:10;stroke-width:20px;stroke:#79e2fd;fill:none"/>
                <path id="Donut_1" d="M.188 0a22.47 22.47 0 0 0 17.676 24.882" transform="translate(0 19.459)" style="opacity:.4;stroke:#fff;stroke-miterlimit:10;stroke-width:20px;fill:#fff"/>
                <path id="Donut_2" d="M22.33 0A22.576 22.576 0 0 0 0 19.778" style="stroke:#fff;stroke-miterlimit:10;stroke-width:20px;fill:none;opacity:.2"/>
            </g>
        </g>
    </g>
</svg>
