<svg xmlns="http://www.w3.org/2000/svg" width="48" height="48">
    <defs>
        <style>
            .cls-3{fill:#4e536b}
        </style>
    </defs>
    <g id="img_defaultimg" transform="translate(-936 -435)">
        <g id="그룹_2887" data-name="그룹 2887" transform="translate(219 -644)">
            <rect id="사각형_7480" data-name="사각형 7480" width="48" height="32" rx="4" transform="translate(717 1087)" style="fill:#2a304d"/>
            <rect id="사각형_7478" data-name="사각형 7478" class="cls-3" width="7" height="7" rx="3.5" transform="translate(723 1093)"/>
            <g id="그룹_2985" data-name="그룹 2985">
                <path id="다각형_4" data-name="다각형 4" class="cls-3" d="M6.336 2.5a2 2 0 0 1 3.328 0l4.263 6.394A2 2 0 0 1 12.263 12H3.737a2 2 0 0 1-1.664-3.109z" transform="translate(723 1101)"/>
                <path id="다각형_5" data-name="다각형 5" class="cls-3" d="M13.464 1.844a2 2 0 0 1 3.073 0L27.266 14.72A2 2 0 0 1 25.73 18H4.27a2 2 0 0 1-1.536-3.28z" transform="translate(731 1095)"/>
            </g>
        </g>
    </g>
</svg>
