<svg xmlns="http://www.w3.org/2000/svg" width="48" height="48" viewBox="0 0 48 48">
    <defs>
        <style>
            .cls-5{fill:#4e536b}
        </style>
    </defs>
    <g id="img_nodata" transform="translate(-696 -922)">
        <path id="합치기_2" data-name="합치기 2" d="M34 44H6a6 6 0 0 1-6-6V4a4 4 0 0 1 4-4h27a4 4 0 0 1 4 4v19h3.5v21z" transform="translate(699 924)" style="fill:#2a304d"/>
        <path id="사각형_9540" data-name="사각형 9540" d="M0 0h3.5A3.5 3.5 0 0 1 7 3.5v14A3.5 3.5 0 0 1 3.5 21 3.5 3.5 0 0 1 0 17.5V0z" transform="translate(734 947)" style="fill:#1a203d"/>
        <circle id="타원_1034" data-name="타원 1034" cx="10" cy="10" r="10" transform="translate(706 936)" style="fill:#101737"/>
        <g id="그룹_6317" data-name="그룹 6317">
            <rect id="사각형_10170" data-name="사각형 10170" class="cls-5" width="2.02" height="12.122" rx="1.01" transform="rotate(-135 553.173 327.951)"/>
            <rect id="사각형_10171" data-name="사각형 10171" class="cls-5" width="2.02" height="12.122" rx="1.01" transform="rotate(-45 1493.111 -387.039)"/>
        </g>
    </g>
</svg>
