<svg xmlns="http://www.w3.org/2000/svg" width="208" height="190" viewBox="0 0 208 190">
    <defs>
        <linearGradient id="linear-gradient" x1=".5" x2=".5" y2="1" gradientUnits="objectBoundingBox">
            <stop offset="0" stop-color="#3248ba"/>
            <stop offset="1" stop-color="#142792"/>
        </linearGradient>
        <style>
            .cls-6{stroke-width:4px;fill:none;stroke:#fff;stroke-linecap:round}
        </style>
    </defs>
    <g id="img_access_error" data-name="img_access error" transform="translate(-856 -490)">
        <g id="그룹_6362" data-name="그룹 6362" transform="translate(-164 -8)">
            <path id="패스_4269" data-name="패스 4269" d="M652.383 140.875c-.087-4.482-.174-8.715-.174-12.809a5.949 5.949 0 0 0-6.081-5.81c-26.005 0-45.813-7.138-62.319-22.474a6.277 6.277 0 0 0-8.475 0c-16.508 15.336-36.307 22.474-62.311 22.474a5.95 5.95 0 0 0-6.081 5.81c0 4.094-.087 8.337-.183 12.819-.831 41.7-1.97 98.822 70.823 122.929a6.29 6.29 0 0 0 3.977 0c72.802-24.108 71.664-81.228 70.824-122.939z" transform="translate(545.428 415.864)" style="stroke-width:4px;fill:#5470f8;stroke:#1531d8"/>
            <rect id="사각형_10231" data-name="사각형 10231" width="20" height="90" rx="10" transform="translate(1115 552)" style="fill:url(#linear-gradient)"/>
            <circle id="타원_1043" data-name="타원 1043" cx="18" cy="18" r="18" transform="translate(1107 552)" style="fill:#fff"/>
            <g id="그룹_6360" data-name="그룹 6360" transform="translate(160 24)">
                <g id="다각형_12" data-name="다각형 12" style="fill:#ff706e">
                    <path d="M57.267 54H16.733c-2.619 0-4.924-1.377-6.164-3.684-1.241-2.307-1.12-4.99.324-7.175L31.16 12.468a6.902 6.902 0 0 1 2.6-2.357A7.06 7.06 0 0 1 37 9.326a7.06 7.06 0 0 1 3.24.785 6.902 6.902 0 0 1 2.6 2.357L63.107 43.14c1.444 2.186 1.565 4.868.324 7.175C62.191 52.623 59.886 54 57.267 54z" style="stroke:none" transform="translate(989 482)"/>
                    <path d="M37 11.326c-1.709 0-3.23.818-4.172 2.244L12.562 44.244a4.93 4.93 0 0 0-.232 5.124A4.93 4.93 0 0 0 16.733 52h40.534a4.93 4.93 0 0 0 4.403-2.632 4.93 4.93 0 0 0-.232-5.124L41.172 13.57A4.923 4.923 0 0 0 37 11.326m0-4c2.865 0 5.73 1.347 7.509 4.039l20.267 30.674C68.729 48.022 64.438 56 57.266 56H16.734c-7.171 0-11.462-7.978-7.509-13.961l20.267-30.674C31.27 8.673 34.135 7.326 37 7.326z" style="fill:#d95351;stroke:none" transform="translate(989 482)"/>
                </g>
                <g id="그룹_6310" data-name="그룹 6310" transform="translate(-15.5 -23.5)">
                    <path id="선_58" data-name="선 58" class="cls-6" transform="translate(1034.5 534.5)" d="M14 0 0 14"/>
                    <path id="선_59" data-name="선 59" class="cls-6" transform="translate(1034.5 534.5)" d="m0 0 14 14"/>
                </g>
            </g>
        </g>
    </g>
</svg>
